<?xml version="1.0" encoding="UTF-8"?>
<svg width="83px" height="79px" viewBox="0 0 83 79" version="1.1" xmlns="http://www.w3.org/2000/svg" xmlns:xlink="http://www.w3.org/1999/xlink">
    <!-- Generator: Sketch 59.1 (86144) - https://sketch.com -->
    <title>Icon / Visual / Consumers</title>
    <desc>Created with Sketch.</desc>
    <defs>
        <polygon id="path-1" points="0 50 47 50 47 0 0 0"></polygon>
        <polygon id="path-3" points="0 50 47 50 47 0 0 0"></polygon>
    </defs>
    <g id="Icon-/-Visual-/-Consumers" stroke="none" stroke-width="1" fill="none" fill-rule="evenodd">
        <circle id="Oval" stroke="#B7AC82" stroke-width="3" cx="42.5" cy="39.5" r="36"></circle>
        <g id="Group-19" transform="translate(19.000000, 12.000000)">
            <path d="M24.0003032,13.3966054 C22.0291698,13.3966054 20.4257414,14.967044 20.4257414,16.8976223 C20.4257414,18.952141 22.1595545,21.6033946 24.0003032,21.6033946 C25.8412541,21.6033946 27.5742586,18.952141 27.5742586,16.8976223 C27.5742586,14.967044 25.9708302,13.3966054 24.0003032,13.3966054 M24.0003032,23 C21.2308921,23 19,19.661333 19,16.8976223 C19,14.1970698 21.2430209,12 24.0003032,12 C26.7573834,12 29,14.1970698 29,16.8976223 C29,19.661333 26.7699165,23 24.0003032,23" id="Fill-1" fill="#7F7045"></path>
            <path d="M30.3195138,46 C28.8414966,46 27.6392382,44.779413 27.6392382,43.278863 L27.6392382,35.4997861 L29.1252607,35.4997861 L29.1252607,43.278863 C29.1252607,43.9476514 29.6607681,44.4913228 30.3195138,44.4913228 C30.9784702,44.4913228 31.5139775,43.9476514 31.5139775,43.278863 L31.5139775,33.1082311 C31.5139775,29.468927 28.5977585,26.5084634 25.0135246,26.5084634 L20.9858434,26.5084634 C17.4024521,26.5084634 14.4860225,29.468927 14.4860225,33.1082311 L14.4860225,43.278863 C14.4860225,43.9476514 15.0215298,44.4913228 15.6804862,44.4913228 C16.3392319,44.4913228 16.8747393,43.9476514 16.8747393,43.278863 L16.8747393,35.4997861 L18.3605511,35.4997861 L18.3605511,43.278863 C18.3605511,44.779413 17.1582928,46 15.6804862,46 C14.2022583,46 13,44.779413 13,43.278863 L13,33.1082311 C13,28.6373793 16.5823379,25 20.9858434,25 L25.0135246,25 C29.4170301,25 33,28.6373793 33,33.1082311 L33,43.278863 C33,44.779413 31.7977417,46 30.3195138,46" id="Fill-3" fill="#7F7045"></path>
            <mask id="mask-2" fill="white">
                <use xlink:href="#path-1"></use>
            </mask>
            <g id="Clip-6"></g>
            <polygon id="Fill-5" fill="#7F7045" mask="url(#mask-2)" points="23 50 25 50 25 43 23 43"></polygon>
            <polygon id="Fill-7" fill="#7F7045" mask="url(#mask-2)" points="17 50 19 50 19 33 17 33"></polygon>
            <polygon id="Fill-8" fill="#7F7045" mask="url(#mask-2)" points="28 50 30 50 30 33 28 33"></polygon>
            <path d="M18.0001084,1.50070593 C16.0868669,1.50070593 14.5299859,3.02800503 14.5299859,4.9044193 C14.5299859,6.910821 16.2131005,9.49950682 18.0001084,9.49950682 C19.7868995,9.49950682 21.4700141,6.910821 21.4700141,4.9044193 C21.4700141,3.02800503 19.9131331,1.50070593 18.0001084,1.50070593 M18.0001084,11 C15.2305607,11 13,7.66542888 13,4.9044193 C13,2.19978725 15.2427069,0 18.0001084,0 C20.7572931,0 23,2.19978725 23,4.9044193 C23,7.66542888 20.7694393,11 18.0001084,11" id="Fill-9" fill="#7F7045" mask="url(#mask-2)"></path>
            <path d="M28.9995662,1.50070593 C27.0864171,1.50070593 25.5303024,3.02800503 25.5303024,4.9044193 C25.5303024,6.910821 27.2126589,9.49950682 28.9995662,9.49950682 C30.7864735,9.49950682 32.4699145,6.910821 32.4699145,4.9044193 C32.4699145,3.02800503 30.9127153,1.50070593 28.9995662,1.50070593 M28.9995662,11 C26.2300551,11 24,7.66542888 24,4.9044193 C24,2.19978725 26.2428528,0 28.9995662,0 C31.7571472,0 34,2.19978725 34,4.9044193 C34,7.66542888 31.7690773,11 28.9995662,11" id="Fill-10" fill="#7F7045" mask="url(#mask-2)"></path>
            <path d="M9.00054229,10.5007059 C7.08713477,10.5007059 5.53011865,12.0277923 5.53011865,13.9042066 C5.53011865,15.9106083 7.21337932,18.4995068 9.00054229,18.4995068 C10.7874883,18.4995068 12.4698813,15.9106083 12.4698813,13.9042066 C12.4698813,12.0277923 10.9137329,10.5007059 9.00054229,10.5007059 M9.00054229,20 C6.23075421,20 4,16.6654289 4,13.9042066 C4,11.1997873 6.24290146,9 9.00054229,9 C11.7573155,9 14,11.1997873 14,13.9042066 C14,16.6654289 11.7698965,20 9.00054229,20" id="Fill-11" fill="#7F7045" mask="url(#mask-2)"></path>
            <path d="M2.58743495,41 C1.16080721,41 0,39.8760487 0,38.4947167 L0,29.3491374 C0,25.2968542 3.40496256,22 7.58969412,22 L11.3875619,22 C13.9061683,22 15.9520371,22.8805678 17,24.4152418 L15.7306638,25.2285397 C14.9802386,24.1296579 13.3570504,23.4734626 11.3875619,23.4734626 L7.58969412,23.4734626 C4.24406651,23.4734626 1.52199518,26.1091075 1.52199518,29.3491374 L1.52199518,38.4947167 C1.52199518,39.0635865 1.99969539,39.5263285 2.58743495,39.5263285 C3.17539028,39.5263285 3.65309049,39.0635865 3.65309049,38.4947167 L3.65309049,31.4998955 L5.17508567,31.4998955 L5.17508567,38.4947167 C5.17508567,39.8760487 4.01427846,41 2.58743495,41" id="Fill-12" fill="#7F7045" mask="url(#mask-2)"></path>
            <polygon id="Fill-13" fill="#7F7045" mask="url(#mask-2)" points="9 50 11 50 11 39 9 39"></polygon>
            <polygon id="Fill-14" fill="#7F7045" mask="url(#mask-2)" points="3 50 5 50 5 29 3 29"></polygon>
            <path d="M37.9996746,10.5007059 C36.086484,10.5007059 34.5301187,12.0277923 34.5301187,13.9042066 C34.5301187,15.9106083 36.2127286,18.4995068 37.9996746,18.4995068 C39.7866207,18.4995068 41.4698813,15.9106083 41.4698813,13.9042066 C41.4698813,12.0277923 39.9128652,10.5007059 37.9996746,10.5007059 M37.9996746,20 C35.2301035,20 33,16.6654289 33,13.9042066 C33,11.1997873 35.2429015,9 37.9996746,9 C40.7573155,9 43,11.1997873 43,13.9042066 C43,16.6654289 40.7692458,20 37.9996746,20" id="Fill-15" fill="#7F7045" mask="url(#mask-2)"></path>
            <path d="M44.4123493,41 C42.9855058,41 41.8246986,39.8760487 41.8246986,38.4947167 L41.8246986,31.4998955 L43.3466937,31.4998955 L43.3466937,38.4947167 C43.3466937,39.0635865 43.8246097,39.5263285 44.4123493,39.5263285 C45.0003046,39.5263285 45.4780048,39.0635865 45.4780048,38.4947167 L45.4780048,29.3491374 C45.4780048,26.1091075 42.7557177,23.4734626 39.4103059,23.4734626 L35.6122224,23.4734626 C33.6427338,23.4734626 32.0195456,24.1296579 31.2693362,25.2285397 L30,24.4152418 C31.0479629,22.8805678 33.0936159,22 35.6122224,22 L39.4103059,22 C43.5950374,22 47,25.2968542 47,29.3491374 L47,38.4947167 C47,39.8760487 45.8391928,41 44.4123493,41" id="Fill-16" fill="#7F7045" mask="url(#mask-2)"></path>
            <polygon id="Fill-17" fill="#7F7045" mask="url(#mask-2)" points="36 50 38 50 38 39 36 39"></polygon>
            <polygon id="Fill-18" fill="#7F7045" mask="url(#mask-2)" points="42 50 44 50 44 29 42 29"></polygon>
        </g>
        <g id="Group-19" transform="translate(19.000000, 12.000000)">
            <path d="M24.0003032,13.3966054 C22.0291698,13.3966054 20.4257414,14.967044 20.4257414,16.8976223 C20.4257414,18.952141 22.1595545,21.6033946 24.0003032,21.6033946 C25.8412541,21.6033946 27.5742586,18.952141 27.5742586,16.8976223 C27.5742586,14.967044 25.9708302,13.3966054 24.0003032,13.3966054 M24.0003032,23 C21.2308921,23 19,19.661333 19,16.8976223 C19,14.1970698 21.2430209,12 24.0003032,12 C26.7573834,12 29,14.1970698 29,16.8976223 C29,19.661333 26.7699165,23 24.0003032,23" id="Fill-1" fill="#7F7045"></path>
            <path d="M30.3195138,46 C28.8414966,46 27.6392382,44.779413 27.6392382,43.278863 L27.6392382,35.4997861 L29.1252607,35.4997861 L29.1252607,43.278863 C29.1252607,43.9476514 29.6607681,44.4913228 30.3195138,44.4913228 C30.9784702,44.4913228 31.5139775,43.9476514 31.5139775,43.278863 L31.5139775,33.1082311 C31.5139775,29.468927 28.5977585,26.5084634 25.0135246,26.5084634 L20.9858434,26.5084634 C17.4024521,26.5084634 14.4860225,29.468927 14.4860225,33.1082311 L14.4860225,43.278863 C14.4860225,43.9476514 15.0215298,44.4913228 15.6804862,44.4913228 C16.3392319,44.4913228 16.8747393,43.9476514 16.8747393,43.278863 L16.8747393,35.4997861 L18.3605511,35.4997861 L18.3605511,43.278863 C18.3605511,44.779413 17.1582928,46 15.6804862,46 C14.2022583,46 13,44.779413 13,43.278863 L13,33.1082311 C13,28.6373793 16.5823379,25 20.9858434,25 L25.0135246,25 C29.4170301,25 33,28.6373793 33,33.1082311 L33,43.278863 C33,44.779413 31.7977417,46 30.3195138,46" id="Fill-3" fill="#7F7045"></path>
            <mask id="mask-4" fill="white">
                <use xlink:href="#path-3"></use>
            </mask>
            <g id="Clip-6"></g>
            <polygon id="Fill-5" fill="#7F7045" mask="url(#mask-4)" points="23 50 25 50 25 43 23 43"></polygon>
            <polygon id="Fill-7" fill="#7F7045" mask="url(#mask-4)" points="17 50 19 50 19 33 17 33"></polygon>
            <polygon id="Fill-8" fill="#7F7045" mask="url(#mask-4)" points="28 50 30 50 30 33 28 33"></polygon>
            <path d="M18.0001084,1.50070593 C16.0868669,1.50070593 14.5299859,3.02800503 14.5299859,4.9044193 C14.5299859,6.910821 16.2131005,9.49950682 18.0001084,9.49950682 C19.7868995,9.49950682 21.4700141,6.910821 21.4700141,4.9044193 C21.4700141,3.02800503 19.9131331,1.50070593 18.0001084,1.50070593 M18.0001084,11 C15.2305607,11 13,7.66542888 13,4.9044193 C13,2.19978725 15.2427069,0 18.0001084,0 C20.7572931,0 23,2.19978725 23,4.9044193 C23,7.66542888 20.7694393,11 18.0001084,11" id="Fill-9" fill="#7F7045" mask="url(#mask-4)"></path>
            <path d="M28.9995662,1.50070593 C27.0864171,1.50070593 25.5303024,3.02800503 25.5303024,4.9044193 C25.5303024,6.910821 27.2126589,9.49950682 28.9995662,9.49950682 C30.7864735,9.49950682 32.4699145,6.910821 32.4699145,4.9044193 C32.4699145,3.02800503 30.9127153,1.50070593 28.9995662,1.50070593 M28.9995662,11 C26.2300551,11 24,7.66542888 24,4.9044193 C24,2.19978725 26.2428528,0 28.9995662,0 C31.7571472,0 34,2.19978725 34,4.9044193 C34,7.66542888 31.7690773,11 28.9995662,11" id="Fill-10" fill="#7F7045" mask="url(#mask-4)"></path>
            <path d="M9.00054229,10.5007059 C7.08713477,10.5007059 5.53011865,12.0277923 5.53011865,13.9042066 C5.53011865,15.9106083 7.21337932,18.4995068 9.00054229,18.4995068 C10.7874883,18.4995068 12.4698813,15.9106083 12.4698813,13.9042066 C12.4698813,12.0277923 10.9137329,10.5007059 9.00054229,10.5007059 M9.00054229,20 C6.23075421,20 4,16.6654289 4,13.9042066 C4,11.1997873 6.24290146,9 9.00054229,9 C11.7573155,9 14,11.1997873 14,13.9042066 C14,16.6654289 11.7698965,20 9.00054229,20" id="Fill-11" fill="#7F7045" mask="url(#mask-4)"></path>
            <path d="M2.58743495,41 C1.16080721,41 0,39.8760487 0,38.4947167 L0,29.3491374 C0,25.2968542 3.40496256,22 7.58969412,22 L11.3875619,22 C13.9061683,22 15.9520371,22.8805678 17,24.4152418 L15.7306638,25.2285397 C14.9802386,24.1296579 13.3570504,23.4734626 11.3875619,23.4734626 L7.58969412,23.4734626 C4.24406651,23.4734626 1.52199518,26.1091075 1.52199518,29.3491374 L1.52199518,38.4947167 C1.52199518,39.0635865 1.99969539,39.5263285 2.58743495,39.5263285 C3.17539028,39.5263285 3.65309049,39.0635865 3.65309049,38.4947167 L3.65309049,31.4998955 L5.17508567,31.4998955 L5.17508567,38.4947167 C5.17508567,39.8760487 4.01427846,41 2.58743495,41" id="Fill-12" fill="#7F7045" mask="url(#mask-4)"></path>
            <polygon id="Fill-13" fill="#7F7045" mask="url(#mask-4)" points="9 50 11 50 11 39 9 39"></polygon>
            <polygon id="Fill-14" fill="#7F7045" mask="url(#mask-4)" points="3 50 5 50 5 29 3 29"></polygon>
            <path d="M37.9996746,10.5007059 C36.086484,10.5007059 34.5301187,12.0277923 34.5301187,13.9042066 C34.5301187,15.9106083 36.2127286,18.4995068 37.9996746,18.4995068 C39.7866207,18.4995068 41.4698813,15.9106083 41.4698813,13.9042066 C41.4698813,12.0277923 39.9128652,10.5007059 37.9996746,10.5007059 M37.9996746,20 C35.2301035,20 33,16.6654289 33,13.9042066 C33,11.1997873 35.2429015,9 37.9996746,9 C40.7573155,9 43,11.1997873 43,13.9042066 C43,16.6654289 40.7692458,20 37.9996746,20" id="Fill-15" fill="#7F7045" mask="url(#mask-4)"></path>
            <path d="M44.4123493,41 C42.9855058,41 41.8246986,39.8760487 41.8246986,38.4947167 L41.8246986,31.4998955 L43.3466937,31.4998955 L43.3466937,38.4947167 C43.3466937,39.0635865 43.8246097,39.5263285 44.4123493,39.5263285 C45.0003046,39.5263285 45.4780048,39.0635865 45.4780048,38.4947167 L45.4780048,29.3491374 C45.4780048,26.1091075 42.7557177,23.4734626 39.4103059,23.4734626 L35.6122224,23.4734626 C33.6427338,23.4734626 32.0195456,24.1296579 31.2693362,25.2285397 L30,24.4152418 C31.0479629,22.8805678 33.0936159,22 35.6122224,22 L39.4103059,22 C43.5950374,22 47,25.2968542 47,29.3491374 L47,38.4947167 C47,39.8760487 45.8391928,41 44.4123493,41" id="Fill-16" fill="#7F7045" mask="url(#mask-4)"></path>
            <polygon id="Fill-17" fill="#7F7045" mask="url(#mask-4)" points="36 50 38 50 38 39 36 39"></polygon>
            <polygon id="Fill-18" fill="#7F7045" mask="url(#mask-4)" points="42 50 44 50 44 29 42 29"></polygon>
        </g>
    </g>
</svg>