<?xml version="1.0" encoding="UTF-8"?>
<svg width="83px" height="79px" viewBox="0 0 83 79" version="1.1" xmlns="http://www.w3.org/2000/svg" xmlns:xlink="http://www.w3.org/1999/xlink">
    <!-- Generator: Sketch 64 (93537) - https://sketch.com -->
    <title>Group 13</title>
    <desc>Created with Sketch.</desc>
    <defs>
        <polygon id="path-1" points="0 0.243728571 48.3422935 0.243728571 48.3422935 66 0 66"></polygon>
    </defs>
    <g id="Symbols" stroke="none" stroke-width="1" fill="none" fill-rule="evenodd">
        <g id="Icon-/-Visual-/-Forms">
            <g id="Group-13" transform="translate(17.000000, 5.000000)">
                <polygon id="Fill-1" fill="#103354" points="12 11 2 11 2 7.78140049 8.78244395 7.78140049 8.78244395 1 12 1"></polygon>
                <polygon id="Fill-2" fill="#103354" points="12 27 37 27 37 24 12 24"></polygon>
                <polygon id="Fill-3" fill="#103354" points="12 33 37 33 37 30 12 30"></polygon>
                <polygon id="Fill-4" fill="#103354" points="12 46 37 46 37 43 12 43"></polygon>
                <polygon id="Fill-5" fill="#103354" points="12 53 37 53 37 50 12 50"></polygon>
                <polygon id="Fill-6" fill="#103354" points="12 40 37 40 37 37 12 37"></polygon>
                <g id="Group-12">
                    <g id="Group-9">
                        <mask id="mask-2" fill="white">
                            <use xlink:href="#path-1"></use>
                        </mask>
                        <g id="Clip-8"></g>
                        <path d="M3.2219871,9.39808571 L3.2219871,61.8178 C3.2219871,62.3568 3.66456774,62.7968 4.20672903,62.7968 L44.1354065,62.7968 C44.6775677,62.7968 45.1201484,62.3568 45.1201484,61.8178 L45.1201484,4.42608571 C45.1201484,3.88551429 44.6775677,3.4463 44.1354065,3.4463 L9.21579355,3.4463 L3.2219871,9.39808571 Z M44.1354065,66.0001571 L4.20672903,66.0001571 C1.88792258,66.0001571 -0.000158064516,64.1223 -0.000158064516,61.8178 L-0.000158064516,8.07022857 L7.88172903,0.243728571 L44.1354065,0.243728571 C46.4542129,0.243728571 48.3422935,2.12001429 48.3422935,4.42608571 L48.3422935,61.8178 C48.3422935,64.1223 46.4542129,66.0001571 44.1354065,66.0001571 L44.1354065,66.0001571 Z" id="Fill-7" fill="#103354" mask="url(#mask-2)"></path>
                    </g>
                    <path d="M32.1737952,9.5293 L35.39515,11.6656571 L35.39515,3.4463 L28.95165,3.4463 L28.95165,11.6656571 L32.1737952,9.5293 Z M38.6172952,17.6504429 L32.1737952,13.3800857 L25.7295048,17.6504429 L25.7295048,0.243728571 L38.6172952,0.243728571 L38.6172952,17.6504429 Z" id="Fill-10" fill="#103354"></path>
                </g>
            </g>
        </g>
    </g>
</svg>