<?xml version="1.0" encoding="UTF-8"?>
<svg width="83px" height="79px" viewBox="0 0 83 79" version="1.1" xmlns="http://www.w3.org/2000/svg" xmlns:xlink="http://www.w3.org/1999/xlink">
    <!-- Generator: Sketch 59.1 (86144) - https://sketch.com -->
    <title>Icon / Visual / Analysts</title>
    <desc>Created with Sketch.</desc>
    <defs>
        <polygon id="path-1" points="0 0.327503604 41.4331605 0.327503604 41.4331605 23.8297039 0 23.8297039"></polygon>
        <polygon id="path-3" points="0.509777778 0.0254555556 4.76555556 0.0254555556 4.76555556 28.9996778 0.509777778 28.9996778"></polygon>
    </defs>
    <g id="Icon-/-Visual-/-Analysts" stroke="none" stroke-width="1" fill="none" fill-rule="evenodd">
        <circle id="Oval" stroke="#B7AC82" stroke-width="3" cx="42.5" cy="39.5" r="36"></circle>
        <g id="Group-25" transform="translate(18.000000, 15.000000)">
            <g id="Group-3">
                <mask id="mask-2" fill="white">
                    <use xlink:href="#path-1"></use>
                </mask>
                <g id="Clip-2"></g>
                <path d="M3.10649552,23.7533189 C5.19270448,24.1801297 7.21873433,22.7751568 7.63121194,20.6164541 C7.77727164,19.8504 7.69201791,19.0973189 7.44001791,18.4188324 L14.0490627,11.7098595 C14.2722269,11.8032649 14.5066746,11.8804541 14.7517791,11.9310486 C15.601809,12.1048865 16.4342866,11.9628324 17.1589433,11.6034811 L21.0085254,15.0523459 C20.9665254,15.1898595 20.9144955,15.3202378 20.8869134,15.4648865 C20.4744358,17.6248865 21.8322269,19.7200216 23.9190627,20.1468324 C26.0052716,20.5742919 28.0313015,19.1706162 28.4437791,17.0099676 C28.5773015,16.3120216 28.5096,15.6264 28.3071224,14.9952649 L35.9686746,7.9224 C36.2401075,8.05212973 36.5265851,8.1611027 36.8331224,8.22402162 C38.9212119,8.65083243 40.9466149,7.24650811 41.3590925,5.08650811 C41.772197,2.92715676 40.4156597,0.830724324 38.3275701,0.403913514 C36.2407343,-0.0228972973 34.2147045,1.38142703 33.8022269,3.54077838 C33.6687045,4.23937297 33.736406,4.92499459 33.9382567,5.55548108 L26.2773313,12.6289946 C26.0046448,12.4986162 25.7200478,12.3902919 25.4128836,12.3280216 C24.5634806,12.1535351 23.7303761,12.2962378 23.0057194,12.6568865 L19.1567642,9.20672432 C19.1987642,9.06921081 19.250794,8.93883243 19.2783761,8.79418378 C19.6908537,6.63418378 18.3330627,4.53775135 16.2456,4.11094054 C14.1600179,3.68477838 12.1327343,5.08845405 11.7202567,7.24845405 C11.574197,8.01385946 11.6600776,8.76758919 11.9120776,9.44542703 L5.3036597,16.1550486 C5.07986866,16.0616432 4.84604776,15.9838054 4.60094328,15.9332108 C2.5134806,15.5064 0.486197015,16.9100757 0.073719403,19.0707243 C-0.338758209,21.229427 1.01903284,23.3265081 3.10649552,23.7533189" id="Fill-1" fill="#7E7144" mask="url(#mask-2)"></path>
            </g>
            <path d="M6,43.5783205 C6,43.8098543 5.79376061,44 5.54183527,44 L1.4601227,44 C1.20689205,44 1,43.8098543 1,43.5783205 L1,37.4210797 C1,37.1895458 1.20689205,37 1.4601227,37 L5.54183527,37 C5.79376061,37 6,37.1895458 6,37.4210797 L6,43.5783205 Z" id="Fill-4" fill="#7E7144"></path>
            <path d="M15,43.5482489 C15,43.7962943 14.7949856,44 14.5416558,44 L10.4583442,44 C10.2056673,44 10,43.7962943 10,43.5482489 L10,32.4523937 C10,32.2043483 10.2056673,32 10.4583442,32 L14.5416558,32 C14.7949856,32 15,32.2043483 15,32.4523937 L15,43.5482489 Z" id="Fill-6" fill="#7E7144"></path>
            <path d="M22,43.5657143 C22,43.8041699 21.7937337,44 21.54047,44 L17.45953,44 C17.2062663,44 17,43.8041699 17,43.5657143 L17,28.4349035 C17,28.1945946 17.2062663,28 17.45953,28 L21.54047,28 C21.7937337,28 22,28.1945946 22,28.4349035 L22,43.5657143 Z" id="Fill-8" fill="#7E7144"></path>
            <path d="M30,43.5590541 C30,43.8011667 29.7937337,44 29.54047,44 L25.45953,44 C25.2069191,44 25,43.8011667 25,43.5590541 L25,24.4409459 C25,24.1988333 25.2069191,24 25.45953,24 L29.54047,24 C29.7937337,24 30,24.1988333 30,24.4409459 L30,43.5590541 Z" id="Fill-10" fill="#7E7144"></path>
            <path d="M39,43.5469076 C39,43.7956895 38.7937337,44 38.54047,44 L34.45953,44 C34.2062663,44 34,43.7956895 34,43.5469076 L34,19.4543814 C34,19.203666 34.2062663,19 34.45953,19 L38.54047,19 C38.7937337,19 39,19.203666 39,19.4543814 L39,43.5469076 Z" id="Fill-12" fill="#7E7144"></path>
            <g id="Group-16" transform="translate(41.000000, 15.000000)">
                <mask id="mask-4" fill="white">
                    <use xlink:href="#path-3"></use>
                </mask>
                <g id="Clip-15"></g>
                <path d="M4.76588889,28.5466333 C4.76588889,28.7953889 4.58866667,28.9996778 4.37366667,28.9996778 L0.901444444,28.9996778 C0.685333333,28.9996778 0.509777778,28.7953889 0.509777778,28.5466333 L0.509777778,0.479788889 C0.509777778,0.230388889 0.685333333,0.0254555556 0.901444444,0.0254555556 L4.37366667,0.0254555556 C4.58866667,0.0254555556 4.76588889,0.230388889 4.76588889,0.479788889 L4.76588889,28.5466333 Z" id="Fill-14" fill="#7E7144" mask="url(#mask-4)"></path>
            </g>
            <path d="M5,20.0002454 C5,20.5523926 4.55228277,21 4,21 C3.44771723,21 3,20.5523926 3,20.0002454 C3,19.4476074 3.44771723,19 4,19 C4.55228277,19 5,19.4476074 5,20.0002454" id="Fill-17" fill="#FEFEFE"></path>
            <path d="M24.2930061,15.2926739 C24.683681,14.902442 25.3168098,14.902442 25.7069939,15.2926739 C26.0976687,15.6833967 26.0976687,16.3166033 25.7069939,16.7073261 C25.3168098,17.097558 24.683681,17.097558 24.2930061,16.7073261 C23.9023313,16.3166033 23.9023313,15.6833967 24.2930061,15.2926739" id="Fill-19" fill="#FEFEFE"></path>
            <path d="M37.0818519,4.39571978 C36.8634788,3.88872628 37.0970644,3.30075123 37.6039842,3.08185568 C38.1113948,2.86345093 38.6997751,3.0970704 38.9181481,3.6045547 C39.1365212,4.1115482 38.9029356,4.69952325 38.3960158,4.917928 C37.8890959,5.13682355 37.3002249,4.90271329 37.0818519,4.39571978" id="Fill-21" fill="#FEFEFE"></path>
            <path d="M15.2930601,7.29300613 C15.6833159,6.90233129 16.3165613,6.90233129 16.7073081,7.29300613 C17.097564,7.68368098 17.097564,8.31680982 16.7073081,8.70699387 C16.3165613,9.09766871 15.6833159,9.09766871 15.2930601,8.70699387 C14.9023133,8.31680982 14.9023133,7.68368098 15.2930601,7.29300613" id="Fill-23" fill="#FEFEFE"></path>
        </g>
    </g>
</svg>