<?xml version="1.0" encoding="UTF-8"?>
<svg width="83px" height="79px" viewBox="0 0 83 79" version="1.1" xmlns="http://www.w3.org/2000/svg" xmlns:xlink="http://www.w3.org/1999/xlink">
    <!-- Generator: Sketch 64 (93537) - https://sketch.com -->
    <title>Group 21</title>
    <desc>Created with Sketch.</desc>
    <defs>
        <polygon id="path-1" points="0 48 62 48 62 0 0 0"></polygon>
    </defs>
    <g id="Symbols" stroke="none" stroke-width="1" fill="none" fill-rule="evenodd">
        <g id="Icon-/-Visual-/-Advisory-Committees">
            <g id="Group-21" transform="translate(11.000000, 11.000000)">
                <path d="M31.4923284,1.60884855 C30.1708271,1.60884855 29.2227761,1.94237096 28.594482,2.62768009 C27.7858739,3.51151446 27.4797408,5.0242768 27.684898,7.12229155 C27.9990451,10.3233125 29.4936478,12.3911514 31.4923284,12.3911514 C33.448535,12.3911514 34.9439391,10.319342 35.2997587,7.11276234 C35.531362,5.04015882 35.2396541,3.5385139 34.4358543,2.64912082 C33.8123686,1.95825298 32.8218436,1.60884855 31.4923284,1.60884855 M31.4923284,14 C28.598489,14 26.4683796,11.3619966 26.0684832,7.27793534 C25.8160436,4.70901872 26.2624209,2.78173568 27.3923887,1.54690868 C28.3324257,0.520930233 29.7116274,0 31.4923284,0 C33.3034824,0 34.7003148,0.530459444 35.6459616,1.57549631 C36.771121,2.81985252 37.1982648,4.74157686 36.9153722,7.28825865 C36.4617823,11.3659671 34.3324743,14 31.4923284,14" id="Fill-1" fill="#103354"></path>
                <path d="M22.7215482,22 L21,22 L21.0178355,17.9013407 C21.1503276,17.2684474 21.7907061,16.0517859 23.3449405,15.5089551 C24.8456685,14.9857742 27.3460325,14.0008187 27.3494298,14 L28,15.5351551 C28,15.5351551 25.4571706,16.5364855 23.9318127,17.0703101 C23.0731619,17.3699724 22.7928901,17.9791219 22.7215482,18.1797155 L22.7215482,22 Z" id="Fill-3" fill="#103354"></path>
                <path d="M42,22 L40.2793011,22 L40.2793011,18.1772592 C40.2130551,17.9905844 39.9344819,17.3724286 39.0690366,17.0703101 C37.5428294,16.5364855 35,15.5351551 35,15.5351551 L35.6505702,14 C35.6539675,14.0008187 38.1543315,14.9857742 39.6550595,15.5089551 C41.2084446,16.0517859 41.8488231,17.2684474 41.9821645,17.900522 L42,18.0667281 L42,22 Z" id="Fill-5" fill="#103354"></path>
                <mask id="mask-2" fill="white">
                    <use xlink:href="#path-1"></use>
                </mask>
                <g id="Clip-8"></g>
                <polygon id="Fill-7" fill="#103354" mask="url(#mask-2)" points="30 21 32 21 32 18 30 18"></polygon>
                <path d="M10.4921408,27.6087573 C9.17141586,27.6087573 8.22334691,27.9422608 7.59423946,28.6283251 C6.78561598,29.5121094 6.47947707,31.0239918 6.68463823,33.1218876 C6.99879125,36.322727 8.49342234,38.3904486 10.4921408,38.3904486 C12.4483845,38.3904486 13.943817,36.3187567 14.3004448,33.1123589 C14.5312511,31.039873 14.240339,29.5383132 13.4357226,28.6489706 C12.8130264,27.9581419 11.8224827,27.6087573 10.4921408,27.6087573 M10.4921408,40 C7.59824651,40 5.46889808,37.3613522 5.0681927,33.2783166 C4.81654971,30.7087516 5.2621341,28.7815779 6.39212329,27.5468209 C7.33297954,26.5209007 8.71140607,26 10.4921408,26 C12.3033292,26 13.7009896,26.5304294 14.6466543,27.575407 C15.771835,28.8196926 16.1981855,30.742102 15.9152875,33.2878453 C15.461689,37.3653224 13.333142,40 10.4921408,40" id="Fill-9" fill="#103354" mask="url(#mask-2)"></path>
                <path d="M1.72154817,48 L0,48 L0.0178354768,43.9013407 C0.15032759,43.2684474 0.790706139,42.0517859 2.34409124,41.5097738 C3.84651784,40.9849555 6.34942975,40 6.34942975,40 L7,41.5351551 C7,41.5351551 4.45717059,42.5364855 2.93096336,43.0703101 C2.07316185,43.3699724 1.79289008,43.9791219 1.72154817,44.1797155 L1.72154817,48 Z" id="Fill-10" fill="#103354" mask="url(#mask-2)"></path>
                <path d="M21,48 L19.2790923,48 L19.2790923,44.178078 C19.2119888,43.9905844 18.9350807,43.3724286 18.068681,43.0703101 C16.543138,42.5364855 14,41.5351551 14,41.5351551 L14.6506492,40 C14.6540468,40.0008187 17.1547142,40.9857742 18.6556243,41.5097738 C20.2091979,42.0517859 20.8496542,43.2684474 20.9821624,43.9013407 L21,44.0667281 L21,48 Z" id="Fill-11" fill="#103354" mask="url(#mask-2)"></path>
                <polygon id="Fill-12" fill="#103354" mask="url(#mask-2)" points="9 47 11 47 11 44 9 44"></polygon>
                <path d="M52.4919697,27.6087573 C51.1705547,27.6087573 50.2225656,27.9422608 49.5951139,28.6291192 C48.7857572,29.5129034 48.4796441,31.0247859 48.684788,33.1218876 C48.9997159,36.322727 50.494221,38.3904486 52.4919697,38.3904486 C54.4480485,38.3904486 55.943355,36.3187567 56.300754,33.1123589 C56.5315409,31.039873 56.2406533,29.5383132 55.4361047,28.6489706 C54.8126597,27.9581419 53.8213981,27.6087573 52.4919697,27.6087573 M52.4919697,40 C49.5991206,40 47.4699517,37.3613522 47.0684787,33.2783166 C46.8160556,30.7095457 47.2624038,28.7815779 48.3922977,27.5468209 C49.3330747,26.5209007 50.711385,26 52.4919697,26 C54.3030054,26 55.700548,26.5296353 56.6453316,27.5746129 C57.7704175,28.8188985 58.1983348,30.742102 57.9154606,33.2878453 C57.461099,37.3653224 55.3311287,40 52.4919697,40" id="Fill-13" fill="#103354" mask="url(#mask-2)"></path>
                <path d="M43.7217571,48 L42,48 L42.0178376,43.9013407 C42.1503458,43.2684474 42.7908021,42.0517859 44.3443757,41.5097738 C45.8452858,40.9857742 48.3468026,40.0008187 48.3502002,40 L49,41.5351551 C49,41.5351551 46.456862,42.5364855 44.931319,43.0703101 C44.0734134,43.3699724 43.7931076,43.9791219 43.7217571,44.1797155 L43.7217571,48 Z" id="Fill-14" fill="#103354" mask="url(#mask-2)"></path>
                <path d="M62,48 L60.2782429,48 L60.2782429,44.178078 C60.2119888,43.9905844 59.9342313,43.3724286 59.068681,43.0703101 C57.5422886,42.5364855 55,41.5351551 55,41.5351551 L55.6497998,40 C55.6540468,40.0008187 58.1538648,40.9857742 59.6556243,41.5097738 C61.2091979,42.0517859 61.8496542,43.2684474 61.9821624,43.9013407 L62,44.0667281 L62,48 Z" id="Fill-15" fill="#103354" mask="url(#mask-2)"></path>
                <polygon id="Fill-16" fill="#103354" mask="url(#mask-2)" points="51 47 53 47 53 44 51 44"></polygon>
                <path d="M10.684827,25 L9,25 L9,18.4446915 C9,17.0964425 10.0938492,16 11.4370561,16 L20,16 L20,17.6901056 L11.4370561,17.6901056 C11.0222911,17.6901056 10.684827,18.028627 10.684827,18.4446915 L10.684827,25 Z" id="Fill-17" fill="#103354" mask="url(#mask-2)"></path>
                <path d="M53,25 L51.315173,25 L51.315173,18.4446915 C51.315173,18.028627 50.9777089,17.6901056 50.5629439,17.6901056 L42,17.6901056 L42,16 L50.5629439,16 C51.906982,16 53,17.0964425 53,18.4446915 L53,25 Z" id="Fill-18" fill="#103354" mask="url(#mask-2)"></path>
                <path d="M30.8409749,42.3597239 L32.1590251,42.3597239 L32.7978098,40.4538947 C32.8731038,40.2280126 33.0415033,40.0474689 33.2609085,39.9559826 L34.1118118,39.6029913 C34.3320266,39.511505 34.5805778,39.5204108 34.7926964,39.6264701 L36.5924663,40.5235214 L37.5235214,39.5916567 L36.6272797,37.7926964 C36.5204108,37.5805778 36.5123146,37.3320266 36.6029913,37.1134311 L36.9559826,36.2609085 C37.0466593,36.0415033 37.2280126,35.8722942 37.4530851,35.7978098 L39.3589143,35.1590251 L39.3589143,33.8417846 L37.4530851,33.2021902 C37.2280126,33.1277058 37.0466593,32.9584967 36.9559826,32.7390915 L36.6029913,31.8881882 C36.5123146,31.668783 36.5204108,31.4210414 36.6264701,31.2081132 L37.5235214,29.4083433 L36.5924663,28.4772882 L34.7926964,29.3743395 C34.5789586,29.4787796 34.331217,29.4876854 34.1126214,29.3970087 L33.2617181,29.044827 C33.0415033,28.9541503 32.8731038,28.772797 32.7978098,28.5469149 L32.1590251,26.6402761 L30.8409749,26.6402761 L30.2021902,28.5469149 C30.1277058,28.772797 29.9584967,28.9541503 29.7390915,29.044827 L28.8873786,29.3970087 C28.6663542,29.488495 28.4210414,29.4787796 28.2081132,29.3735299 L26.4091529,28.4772882 L25.4764786,29.4083433 L26.3735299,31.2081132 C26.4795892,31.4210414 26.4876854,31.668783 26.3970087,31.8881882 L26.044827,32.7390915 C25.9533407,32.9584967 25.7719874,33.1277058 25.5469149,33.2021902 L23.6410857,33.8417846 L23.6410857,35.1590251 L25.5469149,35.7978098 C25.7719874,35.8722942 25.9533407,36.0415033 26.044827,36.2609085 L26.3970087,37.1134311 C26.4876854,37.3320266 26.4795892,37.5805778 26.3727203,37.7926964 L25.4764786,39.5916567 L26.4091529,40.5235214 L28.2081132,39.6264701 C28.4210414,39.5187915 28.6671638,39.5106954 28.8881882,39.6029913 L29.7390915,39.9559826 C29.9584967,40.0474689 30.1277058,40.2280126 30.2021902,40.4538947 L30.8409749,42.3597239 Z M32.749233,44 L30.250767,44 C29.8977757,44 29.5844554,43.7749276 29.4727288,43.4405574 L28.765127,41.3290864 L28.6048236,41.2626981 L26.6123658,42.2552838 C26.2974263,42.4147776 25.9169081,42.3516277 25.6659281,42.1022669 L23.8985427,40.3340719 C23.6499915,40.0847111 23.5876513,39.7041929 23.7447162,39.3876342 L24.7373019,37.3951764 L24.6709136,37.234873 L22.5602523,36.5280808 C22.2250724,36.4155446 22,36.1022243 22,35.7500426 L22,33.250767 C22,32.8977757 22.2250724,32.585265 22.5602523,32.4727288 L24.6717232,31.7659366 L24.7373019,31.6056332 L23.7439066,29.6123658 C23.5876513,29.2958071 23.6499915,28.9152889 23.8985427,28.6659281 L25.6659281,26.8985427 C25.9177177,26.6508011 26.2982359,26.5876513 26.6123658,26.7455258 L28.6048236,27.7381115 L28.765127,27.6717232 L29.4727288,25.5594426 C29.5844554,25.2250724 29.8977757,25 30.250767,25 L32.749233,25 C33.1022243,25 33.4155446,25.2250724 33.5272712,25.5594426 L34.234873,27.6717232 L34.3951764,27.7381115 L36.3884438,26.7447162 C36.7025737,26.5884609 37.0847111,26.6491819 37.3348815,26.8985427 L39.1014573,28.6659281 C39.3508181,28.9152889 39.4131583,29.2958071 39.2560934,29.6123658 L38.2626981,31.6056332 L38.3282768,31.7659366 L40.4397477,32.4727288 C40.7749276,32.585265 41,32.8977757 41,33.250767 L41,35.7500426 C41,36.1022243 40.7749276,36.4155446 40.4397477,36.5280808 L38.3290864,37.234873 L38.2626981,37.3951764 L39.2552838,39.3876342 C39.4131583,39.7041929 39.3508181,40.0847111 39.1014573,40.3340719 L37.3348815,42.1022669 C37.0871399,42.3524374 36.7041929,42.4155872 36.3884438,42.2552838 L34.3951764,41.2626981 L34.234873,41.3290864 L33.5272712,43.4405574 C33.4155446,43.7749276 33.1022243,44 32.749233,44 L32.749233,44 Z" id="Fill-19" fill="#103354" mask="url(#mask-2)"></path>
                <path d="M31.5003782,32.5325265 C30.4150189,32.5325265 29.5323609,33.4152799 29.5323609,34.5 C29.5323609,35.5839637 30.4150189,36.4667171 31.5003782,36.4667171 C32.5849811,36.4667171 33.4676391,35.5839637 33.4676391,34.5 C33.4676391,33.4152799 32.5849811,32.5325265 31.5003782,32.5325265 M31.5003782,38 C29.5701783,38 28,36.429652 28,34.5 C28,32.570348 29.5701783,31 31.5003782,31 C33.4298217,31 35,32.570348 35,34.5 C35,36.429652 33.4298217,38 31.5003782,38" id="Fill-20" fill="#103354" mask="url(#mask-2)"></path>
            </g>
        </g>
    </g>
</svg>