<?xml version="1.0" encoding="UTF-8"?>
<svg width="83px" height="79px" viewBox="0 0 83 79" version="1.1" xmlns="http://www.w3.org/2000/svg" xmlns:xlink="http://www.w3.org/1999/xlink">
    <!-- Generator: Sketch 64 (93537) - https://sketch.com -->
    <title>Group 33</title>
    <desc>Created with Sketch.</desc>
    <defs>
        <polygon id="path-1" points="0.298807143 0.539103571 3.52314286 0.539103571 3.52314286 6.600425 0.298807143 6.600425"></polygon>
    </defs>
    <g id="Symbols" stroke="none" stroke-width="1" fill="none" fill-rule="evenodd">
        <g id="Icon-/-Visual-/-FDIC-Quarterly">
            <g id="Group-33" transform="translate(14.000000, 4.000000)">
                <polygon id="Fill-1" fill="#103354" points="45 16 38 16 38 9 40.8006525 9 40.8006525 13.2001631 45 13.2001631"></polygon>
                <polygon id="Fill-2" fill="#103354" points="0 7 0 70 39.741129 70 39.741129 67.2233232 2.76935484 67.2233232 2.76935484 9.77586827 39.5056452 9.77586827 44.2314516 14.5141695 44.2314516 45.4651411 47 45.4651411 47 13.3651719 40.6524194 7"></polygon>
                <polygon id="Fill-3" fill="#103354" points="7 29 40 29 40 26 7 26"></polygon>
                <polygon id="Fill-4" fill="#103354" points="7 34 40 34 40 31 7 31"></polygon>
                <polygon id="Fill-5" fill="#103354" points="7 40 40 40 40 37 7 37"></polygon>
                <polygon id="Fill-6" fill="#103354" points="7 45 40 45 40 42 7 42"></polygon>
                <polygon id="Fill-7" fill="#103354" points="7 51 40 51 40 48 7 48"></polygon>
                <polygon id="Fill-8" fill="#103354" points="7 56 35 56 35 53 7 53"></polygon>
                <polygon id="Fill-9" fill="#103354" points="7 62 35 62 35 59 7 59"></polygon>
                <polygon id="Fill-10" fill="#103354" points="7 23 23 23 23 20 7 20"></polygon>
                <polygon id="Fill-11" fill="#103354" points="51 9 44 9 44 2 46.7998369 2 46.7998369 6.20016311 51 6.20016311"></polygon>
                <polygon id="Fill-12" fill="#103354" points="7 0 7 8.22709128 9.7694974 8.22709128 9.7694974 2.75305628 46.5052594 2.75305628 51.2313091 7.45241829 51.2313091 45 54 45 54 6.31206116 47.6504796 0"></polygon>
                <g id="Group-32" transform="translate(38.000000, 47.000000)">
                    <path d="M10.8867786,5.14041786 C7.38327857,5.14041786 4.53270714,8.11973929 4.53270714,11.7833107 C4.53270714,15.4460607 7.38327857,18.4253821 10.8867786,18.4253821 C14.3902786,18.4253821 17.24085,15.4460607 17.24085,11.7833107 C17.24085,8.11973929 14.3902786,5.14041786 10.8867786,5.14041786 M10.8867786,21.2453464 C5.89435,21.2453464 1.83456429,17.0018464 1.83456429,11.7833107 C1.83456429,6.56395357 5.89435,2.31963214 10.8867786,2.31963214 C15.8792071,2.31963214 19.9382071,6.56395357 19.9382071,11.7833107 C19.9382071,17.0018464 15.8792071,21.2453464 10.8867786,21.2453464" id="Fill-13" fill="#103354"></path>
                    <polygon id="Fill-15" fill="#103354" points="9.59852143 0.5888 7.98702143 3.95912143 13.7848071 3.95912143 12.1733071 0.5888"></polygon>
                    <polygon id="Fill-17" fill="#103354" points="9.59852143 22.9792179 12.1725214 22.9792179 13.7848071 19.608075 7.98702143 19.608075"></polygon>
                    <g id="Group-21" transform="translate(18.071429, 8.214286)">
                        <mask id="mask-2" fill="white">
                            <use xlink:href="#path-1"></use>
                        </mask>
                        <g id="Clip-20"></g>
                        <polygon id="Fill-19" fill="#103354" mask="url(#mask-2)" points="0.298807143 0.539103571 0.298807143 6.600425 3.52337857 4.91485357 3.52337857 2.22385357"></polygon>
                    </g>
                    <polygon id="Fill-22" fill="#103354" points="3.40175 8.75338929 0.177178571 10.4381393 0.177178571 13.1291393 3.40175 14.8147107"></polygon>
                    <polygon id="Fill-24" fill="#103354" points="7.64342857 4.10796429 4.22321429 2.91607143 2.4035 4.8185 3.54357143 8.39417857"></polygon>
                    <polygon id="Fill-26" fill="#103354" points="14.1286357 19.4600536 17.5480643 20.6519464 19.3685643 18.7486964 18.2284929 15.1730179"></polygon>
                    <polygon id="Fill-28" fill="#103354" points="19.3684857 4.81948571 17.5479857 2.91623571 14.1285571 4.10812857 18.2284143 8.39434286"></polygon>
                    <polygon id="Fill-30" fill="#103354" points="2.4035 18.7485321 4.22321429 20.6517821 7.64342857 19.4598893 3.54357143 15.1728536"></polygon>
                </g>
            </g>
        </g>
    </g>
</svg>