<?xml version="1.0" encoding="UTF-8"?>
<svg width="83px" height="79px" viewBox="0 0 83 79" version="1.1" xmlns="http://www.w3.org/2000/svg" xmlns:xlink="http://www.w3.org/1999/xlink">
    <!-- Generator: Sketch 64 (93537) - https://sketch.com -->
    <title>Group 24</title>
    <desc>Created with Sketch.</desc>
    <defs>
        <polygon id="path-1" points="0 61.225 68.8007528 61.225 68.8007528 0.031 0 0.031"></polygon>
    </defs>
    <g id="Symbols" stroke="none" stroke-width="1" fill="none" fill-rule="evenodd">
        <g id="Icon-/-Visual-/-State-Bank-Performance">
            <g id="Group-24" transform="translate(7.000000, 9.000000)">
                <path d="M10.6980142,50.2052196 L15.3019858,50.2052196 L15.3019858,33.7939884 L10.6980142,33.7939884 L10.6980142,50.2052196 Z M9,52 L17,52 L17,32 L9,32 L9,52 Z" id="Fill-1" fill="#103354"></path>
                <polygon id="Fill-2" fill="#103354" points="19 34 7 34 7 28 8.75409625 28 8.75409625 32.1818668 17.2451297 32.1818668 17.2451297 28 19 28"></polygon>
                <path d="M5.74568799,54.1573386 L20.254312,54.1573386 L20.254312,50.8410358 L5.74568799,50.8410358 L5.74568799,54.1573386 Z M4,56 L22,56 L22,49 L4,49 L4,56 Z" id="Fill-3" fill="#103354"></path>
                <path d="M31.6983324,50.2052196 L36.3016676,50.2052196 L36.3016676,33.7939884 L31.6983324,33.7939884 L31.6983324,50.2052196 Z M30,52 L38,52 L38,32 L30,32 L30,52 Z" id="Fill-4" fill="#103354"></path>
                <polygon id="Fill-5" fill="#103354" points="40 34 28 34 28 28 29.7539831 28 29.7539831 32.1818668 38.2460169 32.1818668 38.2460169 28 40 28"></polygon>
                <path d="M26.745688,54.1573386 L41.254312,54.1573386 L41.254312,50.8410358 L26.745688,50.8410358 L26.745688,54.1573386 Z M25,56 L43,56 L43,49 L25,49 L25,56 Z" id="Fill-6" fill="#103354"></path>
                <path d="M1,61 L67,61 L67,54 L1,54 L1,61 Z M2.76720289,59.1579375 L65.2335766,59.1579375 L65.2335766,55.8428754 L2.76720289,55.8428754 L2.76720289,59.1579375 Z" id="Fill-7" fill="#103354"></path>
                <path d="M53.6984915,50.2052196 L58.3015085,50.2052196 L58.3015085,33.7939884 L53.6984915,33.7939884 L53.6984915,50.2052196 Z M52,52 L60,52 L60,32 L52,32 L52,52 Z" id="Fill-8" fill="#103354"></path>
                <polygon id="Fill-9" fill="#103354" points="62 34 50 34 50 28 51.7540962 28 51.7540962 32.1818668 60.2459038 32.1818668 60.2459038 28 62 28"></polygon>
                <path d="M48.7449176,54.1573386 L63.2535416,54.1573386 L63.2535416,50.8410358 L48.7449176,50.8410358 L48.7449176,54.1573386 Z M47,56 L65,56 L65,49 L47,49 L47,56 Z" id="Fill-10" fill="#103354"></path>
                <polygon id="Fill-11" fill="#103354" points="65 28 4 28 4 22 5.76342412 22 5.76342412 26.1818668 63.2365759 26.1818668 63.2365759 22 65 22"></polygon>
                <path d="M34.0003897,0 L1,16.7164354 L1,23 L67,23 L67,16.7164354 L34.0003897,0 Z M2.76594363,17.7801037 L34.0003897,1.95890319 L65.2340564,17.7801037 L65.2340564,21.2579836 L2.76594363,21.2579836 L2.76594363,17.7801037 Z" id="Fill-12" fill="#103354"></path>
                <polygon id="Fill-13" fill="#103354" points="33 8 35 8 35 6 33 6"></polygon>
                <polygon id="Fill-14" fill="#103354" points="33 19 35 19 35 17 33 17"></polygon>
                <g id="Group-23">
                    <path d="M34.335873,17.5724275 C32.5387719,17.5724275 31.0758169,16.2068775 31.0758169,14.5282275 L32.8333787,14.5282275 C32.8333787,15.2389025 33.5070978,15.8155025 34.335873,15.8155025 C35.1646483,15.8155025 35.8375921,15.2389025 35.8375921,14.5282275 C35.8375921,13.8183275 35.1646483,13.2417275 34.335873,13.2417275 L34.335873,11.4855775 C36.1329742,11.4855775 37.5951539,12.8503525 37.5951539,14.5282275 C37.5951539,16.2068775 36.1329742,17.5724275 34.335873,17.5724275" id="Fill-15" fill="#103354"></path>
                    <path d="M34.335873,13.241805 C32.5387719,13.241805 31.0758169,11.876255 31.0758169,10.197605 C31.0758169,8.51973 32.5387719,7.154955 34.335873,7.154955 C36.1329742,7.154955 37.5951539,8.51973 37.5951539,10.197605 L35.8375921,10.197605 C35.8375921,9.487705 35.1646483,8.911105 34.335873,8.911105 C33.5070978,8.911105 32.8333787,9.487705 32.8333787,10.197605 C32.8333787,10.90828 33.5070978,11.48488 34.335873,11.48488 L34.335873,13.241805 Z" id="Fill-17" fill="#103354"></path>
                    <mask id="mask-2" fill="white">
                        <use xlink:href="#path-1"></use>
                    </mask>
                    <g id="Clip-20"></g>
                    <polygon id="Fill-19" fill="#103354" mask="url(#mask-2)" points="41.7139888 13.24165 44.1747303 13.24165 44.1747303 11.484725 41.7139888 11.484725"></polygon>
                    <polygon id="Fill-21" fill="#103354" mask="url(#mask-2)" points="24.5764045 13.24165 27.0355955 13.24165 27.0355955 11.484725 24.5764045 11.484725"></polygon>
                    <polygon id="Fill-22" fill="#103354" mask="url(#mask-2)" points="0 61.225 68.8007528 61.225 68.8007528 59.468075 0 59.468075"></polygon>
                </g>
            </g>
        </g>
    </g>
</svg>