<?xml version="1.0" encoding="UTF-8"?>
<svg width="83px" height="79px" viewBox="0 0 83 79" version="1.1" xmlns="http://www.w3.org/2000/svg" xmlns:xlink="http://www.w3.org/1999/xlink">
    <!-- Generator: Sketch 63.1 (92452) - https://sketch.com -->
    <title>Group 28</title>
    <desc>Created with Sketch.</desc>
    <defs>
        <polygon id="path-1" points="0.288428634 0.3088 22.8447074 0.3088 22.8447074 15.6795081 0.288428634 15.6795081"></polygon>
    </defs>
    <g id="Symbols" stroke="none" stroke-width="1" fill="none" fill-rule="evenodd">
        <g id="Icon-/-Visual-/-Financial-Reports">
            <g id="Group-28" transform="translate(9.000000, 1.000000)">
                <path d="M45.6869397,21.1015557 C46.244441,18.3452711 48.9819587,16.5527339 51.8033558,17.0975327 C54.6247529,17.6431595 56.4582374,20.3191318 55.8998888,23.0754164 C55.3423875,25.832529 52.6057171,27.6242382 49.7834727,27.0794394 C49.3683122,26.9991271 48.9819587,26.8608575 48.6142451,26.6944372 L48.6142451,26.6944372 L38.2598024,35.7233598 C38.5326222,36.5289666 38.6249743,37.4032942 38.4445065,38.295009 C37.8870052,41.0529495 35.147793,42.8438307 32.3280904,42.2990319 C29.5083878,41.7542331 27.6723615,39.0790887 28.2298628,36.3219762 C28.2422894,36.260707 28.2584816,36.2012778 28.2766194,36.1427991 L28.3942325,35.7962205 L23.1920168,31.39312 C22.2125769,31.8526387 21.0865598,32.0339624 19.9376666,31.8112407 C19.6063855,31.7474876 19.2903551,31.6489602 18.9887282,31.5289057 L18.9887282,31.5289057 L10.0559986,40.0933419 C10.3965997,40.9585619 10.5109807,41.9206534 10.3135676,42.8984762 C9.75691359,45.6539328 7.0185486,47.447298 4.19884603,46.9024991 C1.37744893,46.3577003 -0.457730089,43.6809 0.0997711997,40.9246154 C0.657272489,38.1675029 3.39733202,36.3757937 6.21788185,36.9205925 C6.55001028,36.9843456 6.86519338,37.083701 7.16766748,37.2037554 L7.16766748,37.2037554 L16.1003971,28.6393193 C15.7589487,27.7732713 15.6437205,26.8111798 15.8411336,25.8341849 C16.3986349,23.0770724 19.1386944,21.2853632 21.9575497,21.830162 C24.7780995,22.3749608 26.6141258,25.0501052 26.0566245,27.8080457 C26.0193448,27.9918532 25.9481744,28.1591015 25.8922548,28.3346294 L25.8922548,28.3346294 L31.0936233,32.7377298 C32.0730632,32.2773831 33.1999275,32.0960595 34.3479735,32.3179532 C34.7622868,32.3982655 35.147793,32.5365351 35.5163539,32.7029554 L35.5163539,32.7029554 L45.8707965,23.6740328 C45.5979767,22.869254 45.5064719,21.9940984 45.6869397,21.1015557 Z M4.4996319,41 C3.67141104,41 3,41.671411 3,42.4996319 C3,43.3278528 3.67141104,44 4.4996319,44 C5.32858896,44 6,43.3278528 6,42.4996319 C6,41.671411 5.32858896,41 4.4996319,41 Z M33.5604908,36.4395092 C32.9744785,35.8534969 32.0247853,35.8534969 31.4395092,36.4395092 C30.8534969,37.0247853 30.8534969,37.9744785 31.4395092,38.5604908 C32.0247853,39.1465031 32.9744785,39.1465031 33.5604908,38.5604908 C34.1465031,37.9744785 34.1465031,37.0247853 33.5604908,36.4395092 Z M22.5604908,26.4390379 C21.9752147,25.853654 21.0255215,25.853654 20.4395092,26.4390379 C19.8534969,27.025158 19.8534969,27.9742897 20.4395092,28.5604099 C21.0255215,29.14653 21.9752147,29.14653 22.5604908,28.5604099 C23.1465031,27.9742897 23.1465031,27.025158 22.5604908,26.4390379 Z M51.8768925,22.9063223 C51.5492867,22.1459143 50.6673277,21.7947869 49.9061043,22.1230947 C49.1456171,22.4506664 48.7951893,23.3332697 49.1227951,24.0936777 C49.4504009,24.8540857 50.3330961,25.2052131 51.0935833,24.8769053 C51.8540705,24.5493336 52.2052345,23.6667303 51.8768925,22.9063223 Z" id="Combined-Shape" fill="#FFFFFF"></path>
                <path d="M8,73.4578406 C8,73.755527 7.75248042,74 7.45013055,74 L2.55143603,74 C2.24830287,74 2,73.755527 2,73.4578406 L2,65.5413882 C2,65.2437018 2.24830287,65 2.55143603,65 L7.45013055,65 C7.75248042,65 8,65.2437018 8,65.5413882 L8,73.4578406 Z" id="Fill-3" fill="#FFFFFF"></path>
                <path d="M20,73.4353111 C20,73.7453679 19.7531993,74 19.4499869,74 L14.5500131,74 C14.2460172,74 14,73.7453679 14,73.4353111 L14,59.5654921 C14,59.2554354 14.2460172,59 14.5500131,59 L19.4499869,59 C19.7531993,59 20,59.2554354 20,59.5654921 L20,73.4353111 Z" id="Fill-5" fill="#FFFFFF"></path>
                <path d="M30,73.4028571 C30,73.7307336 29.7516971,74 29.448564,74 L24.551436,74 C24.2475196,74 24,73.7307336 24,73.4028571 L24,52.5979923 C24,52.2675676 24.2475196,52 24.551436,52 L29.448564,52 C29.7516971,52 30,52.2675676 30,52.5979923 L30,73.4028571 Z" id="Fill-7" fill="#FFFFFF"></path>
                <path d="M39,73.4047231 C39,73.731575 38.7525127,74 38.4478528,74 L33.5521472,74 C33.2482705,74 33,73.731575 33,73.4047231 L33,47.5952769 C33,47.2675782 33.2482705,47 33.5521472,47 L38.4478528,47 C38.7525127,47 39,47.2675782 39,47.5952769 L39,73.4047231 Z" id="Fill-9" fill="#FFFFFF"></path>
                <path d="M51,73.4019181 C51,73.7303101 50.7524804,74 50.448564,74 L45.551436,74 C45.2483029,74 45,73.7303101 45,73.4019181 L45,41.5997834 C45,41.2688391 45.2483029,41 45.551436,41 L50.448564,41 C50.7524804,41 51,41.2688391 51,41.5997834 L51,73.4019181 Z" id="Fill-11" fill="#FFFFFF"></path>
                <path d="M61,73.4214635 C61,73.7391237 60.7501305,74 60.4477807,74 L55.551436,74 C55.2475196,74 55,73.7391237 55,73.4214635 L55,37.5801824 C55,37.2608763 55.2475196,37 55.551436,37 L60.4477807,37 C60.7501305,37 61,37.2608763 61,37.5801824 L61,73.4214635 Z" id="Fill-13" fill="#FFFFFF"></path>
                <g id="Group-25" transform="translate(22.000000, 0.000000)">
                    <mask id="mask-2" fill="white">
                        <use xlink:href="#path-1"></use>
                    </mask>
                    <g id="Clip-24"></g>
                    <path d="M20.7363741,15.568 C21.1784852,15.7936 21.651263,15.6624 21.8250407,15.3048 C22.4937444,13.9304 22.8447074,12.4216 22.8447074,10.9 C22.8447074,3.2248 14.1047074,-2.5704 5.48141111,1.8296 C3.61755926,2.7808 2.15663333,4.3232 1.34226296,6.1632 C0.101966667,8.9672 -0.0343296296,11.7728 0.884818519,14.308 C1.02622593,14.6976 1.47855926,14.9024 1.88063333,14.7424 L2.46926296,14.5088 C2.82874444,14.3656 2.98974444,13.9864 2.86537407,13.6384 C2.63878148,13.0056 2.49311481,12.3504 2.43007778,11.6808 C1.97944815,6.9416 5.86815185,2.6304 10.9221889,2.3048 C16.2709667,1.9608 20.7397815,5.9496 20.7397815,10.9 C20.7397815,12.1264 20.4612259,13.3416 19.9271148,14.4504 C19.7712259,14.7728 19.9245593,15.1536 20.2567815,15.3232 L20.7363741,15.568 Z" id="Fill-23" fill="#FFFFFF" mask="url(#mask-2)"></path>
                </g>
                <path d="M32.4992593,7.94559601 C33.2244444,7.94559601 33.8585185,8.32701788 34.082963,8.83969828 C34.1851852,9.07287522 34.3807407,9.24582764 34.6259259,9.24582764 L35.2488889,9.24582764 C35.6866667,9.24582764 36.0007407,8.79723229 35.8637037,8.36407911 C35.5659259,7.41978975 34.8022222,6.65849023 33.8177778,6.28942211 C33.5711111,6.19754113 33.4140741,5.94274514 33.4140741,5.66941854 C33.4140741,5.29957831 33.1266667,5 32.7711111,5 L32.2274074,5 C31.8718519,5 31.5844444,5.29957831 31.5844444,5.66941854 C31.5844444,5.94274514 31.4274074,6.19754113 31.1807407,6.28942211 C29.9051852,6.76735761 29,7.90699056 29,9.24582764 C29,10.8425491 30.0822222,12.4539407 32.4992593,12.4539407 C33.5451852,12.4539407 34.1696296,12.9395973 34.1696296,13.7534002 C34.1696296,14.4583358 33.4059259,15.054404 32.4992593,15.054404 C31.7748148,15.054404 31.1407407,14.6729821 30.9162963,14.1595296 C30.8148148,13.9263527 30.6192593,13.7534002 30.3733333,13.7534002 L29.7511111,13.7534002 C29.3125926,13.7534002 28.9985185,14.2019956 29.1355556,14.6359209 C29.4333333,15.5794381 30.197037,16.3422819 31.1807407,16.7105779 C31.4274074,16.803231 31.5844444,17.0572549 31.5844444,17.3305815 C31.5844444,17.7004217 31.8718519,18 32.2274074,18 L32.7711111,18 C33.1266667,18 33.4140741,17.7004217 33.4140741,17.3305815 C33.4140741,17.0572549 33.5711111,16.803231 33.8177778,16.7105779 C35.0940741,16.2326424 36,15.0930094 36,13.7534002 C36,11.8655936 34.56,10.5468314 32.4992593,10.5468314 C31.8755556,10.5468314 30.8296296,10.3777395 30.8296296,9.24582764 C30.8296296,8.54089208 31.5940741,7.94559601 32.4992593,7.94559601" id="Fill-26" fill="#FFFFFF"></path>
            </g>
        </g>
    </g>
</svg>