<?xml version="1.0" encoding="UTF-8"?>
<svg width="83px" height="79px" viewBox="0 0 83 79" version="1.1" xmlns="http://www.w3.org/2000/svg" xmlns:xlink="http://www.w3.org/1999/xlink">
    <!-- Generator: Sketch 59.1 (86144) - https://sketch.com -->
    <title>Icon / Visual /Analysis</title>
    <desc>Created with Sketch.</desc>
    <defs>
        <polygon id="path-1" points="0.00010625 0.243442623 16.481075 0.243442623 16.481075 32.5025115 0.00010625 32.5025115"></polygon>
        <polygon id="path-3" points="0.198391667 0.241071429 18.7540028 0.241071429 18.7540028 14.70825 0.198391667 14.70825"></polygon>
        <polygon id="path-5" points="0 44 43 44 43 1 0 1"></polygon>
    </defs>
    <g id="Icon-/-Visual-/Analysis" stroke="none" stroke-width="1" fill="none" fill-rule="evenodd">
        <circle id="Oval" stroke="#B7AC82" stroke-width="3" cx="42.5" cy="39.5" r="36"></circle>
        <g id="Group-15" transform="translate(21.000000, 16.000000)">
            <g id="Group-3">
                <mask id="mask-2" fill="white">
                    <use xlink:href="#path-1"></use>
                </mask>
                <g id="Clip-2"></g>
                <path d="M4.59435625,32.5025115 C2.060825,32.5025115 0.00010625,30.4034951 0.00010625,27.8240852 L0.00010625,15.8753803 L5.3258875,15.8753803 L5.3258875,17.8061508 L1.8961375,17.8061508 L1.8961375,27.8240852 C1.8961375,29.3377574 3.10685625,30.571741 4.59435625,30.571741 C6.0823875,30.571741 7.29310625,29.3377574 7.29310625,27.8240852 L7.29310625,4.92262623 C7.29310625,2.34267541 9.353825,0.243118033 11.8873562,0.243118033 C14.4208875,0.243118033 16.481075,2.34267541 16.481075,4.92262623 L16.481075,14.8529213 L14.5845125,14.8529213 L14.5845125,4.92262623 C14.5845125,3.40787213 13.374325,2.17442951 11.8873562,2.17442951 C10.399325,2.17442951 9.1891375,3.40787213 9.1891375,4.92262623 L9.1891375,27.8240852 C9.1891375,30.4034951 7.1278875,32.5025115 4.59435625,32.5025115" id="Fill-1" fill="#7F7045" mask="url(#mask-2)"></path>
            </g>
            <g id="Group-6" transform="translate(12.000000, 0.000000)">
                <mask id="mask-4" fill="white">
                    <use xlink:href="#path-3"></use>
                </mask>
                <g id="Clip-5"></g>
                <path d="M18.7540028,14.70825 L16.8698361,14.70825 L16.8698361,5.33003571 C16.8698361,3.57878571 15.466475,2.15325 13.742225,2.15325 L0.198391667,2.15325 L0.198391667,0.24075 L13.742225,0.24075 C16.5056694,0.24075 18.7540028,2.52342857 18.7540028,5.33003571 L18.7540028,14.70825 Z" id="Fill-4" fill="#7F7045" mask="url(#mask-4)"></path>
            </g>
            <mask id="mask-6" fill="white">
                <use xlink:href="#path-5"></use>
            </mask>
            <g id="Clip-8"></g>
            <polygon id="Fill-7" fill="#7F7045" mask="url(#mask-6)" points="5 33 14 33 14 31 5 31"></polygon>
            <path d="M22.9992438,15.9620671 C20.85208,15.9620671 18.8330641,16.7982408 17.3139897,18.315558 C14.1779426,21.4485981 14.1779426,26.5508521 17.3139897,29.6838922 C18.8330641,31.2017592 20.85208,32.0373832 22.9992438,32.0373832 C25.1464075,32.0373832 27.1670734,31.2017592 28.6861478,29.6838922 C31.8205449,26.5508521 31.8205449,21.4485981 28.6861478,18.315558 C27.1670734,16.7982408 25.1464075,15.9620671 22.9992438,15.9620671 M22.9992438,34 C20.3268389,34 17.8150312,32.9609676 15.9258131,31.0709181 C12.024729,27.1715228 12.024729,20.8284772 15.9258131,16.9279824 C17.8150312,15.0384827 20.3268389,14 22.9992438,14 C25.6716487,14 28.1834563,15.0384827 30.0737744,16.9279824 C33.9754085,20.8284772 33.9754085,27.1715228 30.0737744,31.0709181 C28.1834563,32.9609676 25.6716487,34 22.9992438,34" id="Fill-9" fill="#7F7045" mask="url(#mask-6)"></path>
            <path d="M31.7660274,34.1488344 L35.8515068,38.2341104 L37.2345205,36.8517135 L33.1484932,32.7658896 L31.7660274,34.1488344 Z M35.8515068,41 L29,34.1488344 L33.1484932,30 L40,36.8517135 L35.8515068,41 Z" id="Fill-10" fill="#7F7045" mask="url(#mask-6)"></path>
            <polygon id="Fill-11" fill="#7F7045" mask="url(#mask-6)" points="31.7205882 34 29 31.2792701 30.2799189 30 33 32.7212367"></polygon>
            <path d="M37.6661385,39.9997359 L38.9986796,41.3331572 L40.3338615,39.9997359 L38.9986796,38.6668428 L37.6661385,39.9997359 Z M38.9986796,44 L35,39.9997359 L38.9986796,36 L43,39.9997359 L38.9986796,44 Z" id="Fill-12" fill="#7F7045" mask="url(#mask-6)"></path>
            <polygon id="Fill-13" fill="#7F7045" mask="url(#mask-6)" points="19 12 27 12 27 10 19 10"></polygon>
            <polygon id="Fill-14" fill="#7F7045" mask="url(#mask-6)" points="19 8 27 8 27 6 19 6"></polygon>
        </g>
    </g>
</svg>