<?xml version="1.0" encoding="UTF-8"?>
<svg width="83px" height="79px" viewBox="0 0 83 79" version="1.1" xmlns="http://www.w3.org/2000/svg" xmlns:xlink="http://www.w3.org/1999/xlink">
    <!-- Generator: Sketch 64 (93537) - https://sketch.com -->
    <title>Group 17</title>
    <desc>Created with Sketch.</desc>
    <defs>
        <polygon id="path-1" points="0.522123288 0.359982927 32.8734247 0.359982927 32.8734247 32.6537634 0.522123288 32.6537634"></polygon>
        <polygon id="path-3" points="0 74 65.4213699 74 65.4213699 0.273439024 0 0.273439024"></polygon>
    </defs>
    <g id="Symbols" stroke="none" stroke-width="1" fill="none" fill-rule="evenodd">
        <g id="Icon-/-Visual-/Omsbudsman">
            <g id="Group-17" transform="translate(13.000000, 3.000000)">
                <polygon id="Fill-1" fill="#103355" points="48 10 41 10 41 3 43.6247855 3 43.6247855 7.375 48 7.375"></polygon>
                <polygon id="Fill-2" fill="#103355" points="0 0 0 68 43.0002857 68 43.0002857 65.2246564 2.785875 65.2246564 2.785875 2.77534356 42.993 2.77534356 48.2132143 7.97491661 48.2132143 21.6266311 51 21.6266311 51 6.8254036 44.1477857 0"></polygon>
                <polygon id="Fill-3" fill="#103355" points="8 57 36 57 36 54 8 54"></polygon>
                <polygon id="Fill-4" fill="#103355" points="8 45 30 45 30 42 8 42"></polygon>
                <polygon id="Fill-5" fill="#103355" points="8 39 30 39 30 36 8 36"></polygon>
                <polygon id="Fill-6" fill="#103355" points="8 51 33 51 33 48 8 48"></polygon>
                <polygon id="Fill-7" fill="#103355" points="8 33 33 33 33 30 8 30"></polygon>
                <polygon id="Fill-8" fill="#103355" points="8 27 36 27 36 24 8 24"></polygon>
                <polygon id="Fill-9" fill="#103355" points="9 21 27 21 27 18 9 18"></polygon>
                <g id="Group-16">
                    <g id="Group-12" transform="translate(32.547945, 24.365854)">
                        <mask id="mask-2" fill="white">
                            <use xlink:href="#path-1"></use>
                        </mask>
                        <g id="Clip-11"></g>
                        <path d="M16.6984521,3.12144634 C9.30373973,3.12144634 3.28869863,9.12537317 3.28869863,16.5055195 C3.28869863,23.8883732 9.30373973,29.8923 16.6984521,29.8923 C24.0922603,29.8923 30.1073014,23.8883732 30.1073014,16.5055195 C30.1073014,9.12537317 24.0922603,3.12144634 16.6984521,3.12144634 M16.6984521,32.6537634 C7.77941096,32.6537634 0.522123288,25.4080805 0.522123288,16.5055195 C0.522123288,7.6020561 7.77941096,0.359982927 16.6984521,0.359982927 C25.6174932,0.359982927 32.8738767,7.6020561 32.8738767,16.5055195 C32.8738767,25.4080805 25.6174932,32.6537634 16.6984521,32.6537634" id="Fill-10" fill="#103355" mask="url(#mask-2)"></path>
                    </g>
                    <mask id="mask-4" fill="white">
                        <use xlink:href="#path-3"></use>
                    </mask>
                    <g id="Clip-14"></g>
                    <polygon id="Fill-13" fill="#103355" mask="url(#mask-4)" points="47.8635616 60.6312683 50.630137 60.6312683 50.630137 55.6389756 47.8635616 55.6389756"></polygon>
                    <path d="M48.1285562,62.0126317 L48.1285562,70.1228512 C48.1285562,70.7374122 48.6294329,71.2391683 49.2460356,71.2391683 C49.8635425,71.2391683 50.3653233,70.7374122 50.3653233,70.1228512 L50.3653233,62.0126317 L48.1285562,62.0126317 Z M49.2460356,73.9997293 C47.1042,73.9997293 45.3619808,72.2607293 45.3619808,70.1228512 L45.3619808,59.2511683 L53.1309945,59.2511683 L53.1309945,70.1228512 C53.1309945,72.2607293 51.3878712,73.9997293 49.2460356,73.9997293 L49.2460356,73.9997293 Z" id="Fill-15" fill="#103355" mask="url(#mask-4)"></path>
                </g>
            </g>
        </g>
    </g>
</svg>