<?xml version="1.0" encoding="UTF-8"?>
<svg width="83px" height="79px" viewBox="0 0 83 79" version="1.1" xmlns="http://www.w3.org/2000/svg" xmlns:xlink="http://www.w3.org/1999/xlink">
    <!-- Generator: Sketch 64 (93537) - https://sketch.com -->
    <title>Group 22</title>
    <desc>Created with Sketch.</desc>
    <defs>
        <polygon id="path-1" points="0.000428571429 0.102125 59.5494643 0.102125 59.5494643 56.9997361 0.000428571429 56.9997361"></polygon>
        <polygon id="path-3" points="0 57 59 57 59 0 0 0"></polygon>
    </defs>
    <g id="Symbols" stroke="none" stroke-width="1" fill="none" fill-rule="evenodd">
        <g id="Icon-/-Visual-/-Historic-Bank-Data">
            <g id="Group-22" transform="translate(12.000000, 11.000000)">
                <g id="Group-3">
                    <mask id="mask-2" fill="white">
                        <use xlink:href="#path-1"></use>
                    </mask>
                    <g id="Clip-2"></g>
                    <path d="M43.13775,53.8383472 C35.8579286,53.8383472 29.9350714,48.0037639 29.9350714,40.8317917 C29.9350714,33.6598194 35.8579286,27.8252361 43.13775,27.8252361 C50.4175714,27.8252361 56.3409643,33.6598194 56.3409643,40.8317917 C56.3409643,48.0037639 50.4175714,53.8383472 43.13775,53.8383472 L43.13775,53.8383472 Z M3.89239286,47.6865694 C3.52221429,47.6865694 3.20935714,47.3783472 3.20935714,47.013125 L3.20935714,9.46279167 C3.20935714,9.09756944 3.52221429,8.78934722 3.89239286,8.78934722 L7.67453571,8.78934722 L7.67453571,10.4613472 C7.67453571,12.9455972 9.72632143,14.9669861 12.249,14.9669861 C14.7716786,14.9669861 16.8245357,12.9455972 16.8245357,10.4613472 L16.8245357,8.78934722 L32.1095357,8.78934722 L32.1095357,10.4613472 C32.1095357,12.9455972 34.1618571,14.9669861 36.684,14.9669861 C39.2066786,14.9669861 41.259,12.9455972 41.259,10.4613472 L41.259,8.78934722 L44.5547143,8.78934722 C44.9248929,8.78934722 45.23775,9.09756944 45.23775,9.46279167 L45.23775,24.811625 C44.5488214,24.7240139 43.8507857,24.6638472 43.13775,24.6638472 C34.0879286,24.6638472 26.7261429,31.9165694 26.7261429,40.8317917 C26.7261429,43.284375 27.2998929,45.6018472 28.2957857,47.6865694 L3.89239286,47.6865694 Z M10.8834643,4.60934722 C10.8834643,3.86623611 11.4963214,3.26298611 12.249,3.26298611 C13.0022143,3.26298611 13.6156071,3.86623611 13.6156071,4.60934722 L13.6156071,10.4613472 C13.6156071,11.2023472 13.0022143,11.8050694 12.249,11.8050694 C11.4963214,11.8050694 10.8834643,11.2023472 10.8834643,10.4613472 L10.8834643,4.60934722 Z M35.3184643,4.60934722 C35.3184643,3.86623611 35.9307857,3.26298611 36.684,3.26298611 C37.4372143,3.26298611 38.0500714,3.86623611 38.0500714,4.60934722 L38.0500714,10.4613472 C38.0500714,11.2023472 37.4372143,11.8050694 36.684,11.8050694 C35.9307857,11.8050694 35.3184643,11.2023472 35.3184643,10.4613472 L35.3184643,4.60934722 Z M48.4466786,25.5484028 L48.4466786,9.46279167 C48.4466786,7.34798611 46.70025,5.62743056 44.5547143,5.62743056 L41.259,5.62743056 L41.259,4.60934722 C41.259,2.12404167 39.2066786,0.102125 36.684,0.102125 C34.1618571,0.102125 32.1095357,2.12404167 32.1095357,4.60934722 L32.1095357,5.62743056 L16.8245357,5.62743056 L16.8245357,4.60934722 C16.8245357,2.12404167 14.7716786,0.102125 12.249,0.102125 C9.72632143,0.102125 7.67453571,2.12404167 7.67453571,4.60934722 L7.67453571,5.62743056 L3.89239286,5.62743056 C1.74632143,5.62743056 0.000428571429,7.34798611 0.000428571429,9.46279167 L0.000428571429,47.013125 C0.000428571429,49.1274028 1.74632143,50.8479583 3.89239286,50.8479583 L30.2795357,50.8479583 C33.2875714,54.5888472 37.9279286,56.9997361 43.13775,56.9997361 C52.1875714,56.9997361 59.5498929,49.7470139 59.5498929,40.8317917 C59.5498929,33.7490139 54.8956071,27.7291806 48.4466786,25.5484028 L48.4466786,25.5484028 Z" id="Fill-1" fill="#103354" mask="url(#mask-2)"></path>
                </g>
                <mask id="mask-4" fill="white">
                    <use xlink:href="#path-3"></use>
                </mask>
                <g id="Clip-5"></g>
                <polygon id="Fill-4" fill="#103354" mask="url(#mask-4)" points="9 22 13 22 13 18 9 18"></polygon>
                <polygon id="Fill-6" fill="#103354" mask="url(#mask-4)" points="16 22 20 22 20 18 16 18"></polygon>
                <polygon id="Fill-7" fill="#103354" mask="url(#mask-4)" points="22 22 26 22 26 18 22 18"></polygon>
                <polygon id="Fill-8" fill="#103354" mask="url(#mask-4)" points="29 22 33 22 33 18 29 18"></polygon>
                <polygon id="Fill-9" fill="#103354" mask="url(#mask-4)" points="36 22 40 22 40 18 36 18"></polygon>
                <polygon id="Fill-10" fill="#103354" mask="url(#mask-4)" points="9 31 13 31 13 27 9 27"></polygon>
                <polygon id="Fill-11" fill="#103354" mask="url(#mask-4)" points="16 31 20 31 20 27 16 27"></polygon>
                <polygon id="Fill-12" fill="#103354" mask="url(#mask-4)" points="22 31 26 31 26 27 22 27"></polygon>
                <polygon id="Fill-13" fill="#103354" mask="url(#mask-4)" points="9 39 13 39 13 35 9 35"></polygon>
                <polygon id="Fill-14" fill="#103354" mask="url(#mask-4)" points="16 39 20 39 20 35 16 35"></polygon>
                <path d="M38,42.5 C38,43.3289316 37.3283313,44 36.5,44 C35.6710684,44 35,43.3289316 35,42.5 C35,41.6716687 35.6710684,41 36.5,41 C37.3283313,41 38,41.6716687 38,42.5" id="Fill-15" fill="#103354" mask="url(#mask-4)"></path>
                <path d="M46,42.5 C46,43.3289316 45.3283313,44 44.5,44 C43.6716687,44 43,43.3289316 43,42.5 C43,41.6716687 43.6716687,41 44.5,41 C45.3283313,41 46,41.6716687 46,42.5" id="Fill-16" fill="#103354" mask="url(#mask-4)"></path>
                <path d="M52,37.4996999 C52,38.3284657 51.3283313,39 50.5,39 C49.6710684,39 49,38.3284657 49,37.4996999 C49,36.6715343 49.6710684,36 50.5,36 C51.3283313,36 52,36.6715343 52,37.4996999" id="Fill-17" fill="#103354" mask="url(#mask-4)"></path>
                <path d="M43,39.5003001 C43,40.3284657 42.3284657,41 41.4996999,41 C40.6715343,41 40,40.3284657 40,39.5003001 C40,38.6715343 40.6715343,38 41.4996999,38 C42.3284657,38 43,38.6715343 43,39.5003001" id="Fill-18" fill="#103354" mask="url(#mask-4)"></path>
                <polygon id="Fill-19" fill="#103354" mask="url(#mask-4)" points="38.0219616 42 38 41.9780384 39.9780384 40 40 40.0219616"></polygon>
                <polygon id="Fill-20" fill="#103354" mask="url(#mask-4)" points="46.020289 42 46 41.979711 48.979711 39 49 39.020289"></polygon>
                <polygon id="Fill-21" fill="#103354" mask="url(#mask-4)" points="43.9780384 42 42 40.0219616 42.0219616 40 44 41.9780384"></polygon>
            </g>
        </g>
    </g>
</svg>