<?xml version="1.0" encoding="UTF-8"?>
<svg width="83px" height="79px" viewBox="0 0 83 79" version="1.1" xmlns="http://www.w3.org/2000/svg" xmlns:xlink="http://www.w3.org/1999/xlink">
    <!-- Generator: Sketch 59.1 (86144) - https://sketch.com -->
    <title>Icon / Visual / Data and Insights</title>
    <desc>Created with Sketch.</desc>
    <defs>
        <polygon id="path-1" points="0.0684615385 0.256918605 4.95153846 0.256918605 4.95153846 15 0.0684615385 15"></polygon>
    </defs>
    <g id="Icon-/-Visual-/-Data-and-Insights" stroke="none" stroke-width="1" fill="none" fill-rule="evenodd">
        <circle id="Oval" stroke="#B7AC82" stroke-width="3" cx="42.5" cy="39.5" r="36"></circle>
        <g id="Group-20" transform="translate(21.000000, 17.000000)">
            <path d="M12,8 L12,17.8202257 C11.9915007,17.8293538 11.9830015,17.838482 11.9745022,17.838482 C11.1780908,18.6214766 10.7118911,19.6952204 10.6608956,20.8511178 C10.6523963,21.0877742 10.6608956,21.3332206 10.6948926,21.5790052 L8,24 L8,8 L12,8 Z" id="Fill-1" fill="#7E7044"></path>
            <polygon id="Fill-3" fill="#7E7044" points="8 30.62396 12 27 12 40 8 40"></polygon>
            <path d="M20,14 L20,22 L19.566877,21.7050287 C19.5157729,20.6437894 19.1422713,19.6413252 18.5138801,18.8451218 C17.8514196,18 16.9681388,17.4790545 16,17.3512823 L16,14 L20,14 Z" id="Fill-5" fill="#7E7044"></path>
            <g id="Group-9" transform="translate(15.000000, 25.000000)">
                <mask id="mask-2" fill="white">
                    <use xlink:href="#path-1"></use>
                </mask>
                <g id="Clip-8"></g>
                <path d="M2.26576923,0.256918605 L4.95153846,1.66656977 L4.95153846,15.0001744 L0.0684615385,15.0001744 L0.0684615385,0.996104651 C0.865,0.915174419 1.61423077,0.659825581 2.26576923,0.256918605" id="Fill-7" fill="#7E7044" mask="url(#mask-2)"></path>
            </g>
            <path d="M28,0 L28,24.1193704 C27.2882103,24.2223599 26.6104203,24.5222819 26.0509995,25 L24,23.6886238 L24,0 L28,0 Z" id="Fill-10" fill="#7E7044"></path>
            <path d="M28,33.0842593 L28,40 L24,40 L24,29 L24.4880662,29.304537 C24.714297,31.2604321 26.1558094,32.8404938 28,33.0842593" id="Fill-12" fill="#7E7044"></path>
            <polygon id="Fill-14" fill="#7E7044" points="36 14 36 19.9343687 32 24 32 14"></polygon>
            <path d="M33.3654694,28.5448983 L36,26 L36,40 L32,40 L32,32.017192 C32.794581,31.2624933 33.3144297,30.1746394 33.3654694,28.9453645 C33.3711405,28.8110825 33.3711405,28.6774805 33.3654694,28.5448983" id="Fill-16" fill="#7E7044"></path>
            <path d="M30.1404276,28.1290625 C30.0843313,28.9216459 29.3993292,29.539279 28.5833196,29.5023031 C27.8610361,29.4653273 27.279516,28.9401338 27.1763824,28.2670371 C27.1575675,28.165696 27.14816,28.0646972 27.1575675,27.9633561 C27.1669749,27.732942 27.2324787,27.5114295 27.3356123,27.3272352 C27.5983242,26.8479191 28.1331554,26.5346517 28.7146755,26.5623836 C29.193062,26.5808715 29.6059448,26.8201872 29.8589008,27.1704303 C30.0561089,27.4285763 30.1592425,27.7510875 30.1404276,28.1013307 L30.1404276,28.1290625 Z M16.7180797,21.3176384 C16.6992648,21.631248 16.5863753,21.9167835 16.4083305,22.1471976 C16.1173962,22.5159286 15.6578246,22.7463427 15.1512158,22.7281972 C14.8041852,22.7097093 14.485377,22.5806363 14.24148,22.3687101 C14.0069905,22.1656855 13.8383531,21.898638 13.7630935,21.5942722 C13.7352195,21.4651993 13.7164046,21.3272247 13.7258121,21.1889078 C13.7630935,20.3774941 14.4665621,19.7509595 15.2923276,19.7879353 C16.0985813,19.8245687 16.7365462,20.4884215 16.7180797,21.2810049 L16.7180797,21.3176384 Z M2.95776021,32.5069303 C2.13234313,32.4702969 1.4943783,31.7787122 1.53200812,30.9679833 C1.56963794,30.156912 2.27310653,29.530035 3.08876774,29.5666684 C3.36088709,29.5762548 3.61419153,29.659108 3.82045869,29.788181 C4.08317059,29.9538874 4.28978617,30.1935454 4.41138624,30.4794232 C4.49605334,30.6728615 4.53333473,30.8755438 4.52392728,31.0967139 C4.48664588,31.9077852 3.78317729,32.5442485 2.95776021,32.5069303 L2.95776021,32.5069303 Z M42.8875293,16.1105537 C42.7938032,16.0181141 42.6718547,15.9814807 42.5404987,16.0088702 L37.6440926,17.0595996 C37.4848627,17.0873314 37.3629142,17.2164044 37.3535067,17.3821108 C37.3346918,17.5389157 37.4284179,17.6864765 37.5789372,17.7508418 L39.341964,18.5067918 L39.0792521,18.7372059 L30.7972073,25.9447506 C30.2623761,25.4192147 29.5495,25.0967034 28.7801793,25.0597276 C27.7390876,25.0230942 26.7732555,25.4931663 26.1819795,26.3227256 L18.1999281,21.7784666 C18.218743,21.649736 18.2281504,21.5203206 18.2372095,21.39159 C18.2748393,20.5990066 17.9933125,19.8430566 17.4494222,19.2531555 C16.9055319,18.6635966 16.1644335,18.3222551 15.3578313,18.2856217 C14.5512292,18.2578898 13.7819084,18.5252797 13.1815734,19.0689611 C12.5906458,19.6033986 12.2342078,20.3316167 12.196578,21.1242001 C12.187519,21.5299069 12.2530227,21.9448577 12.4031936,22.3224903 L4.77758014,28.6176226 C4.29884521,28.2766234 3.75495493,28.0924291 3.16402738,28.0646972 C1.4943783,27.9907456 0.0780336699,29.2629875 0.00312245313,30.903618 C-0.0721371879,32.5346622 1.22225895,33.9267331 2.89190803,34 L3.03267143,34 C3.78317729,34 4.50546079,33.7329525 5.05875853,33.2259045 C5.65909353,32.6911247 6.0061241,31.9632489 6.0434055,31.1706655 C6.07162786,30.6821055 5.96849428,30.1935454 5.75281966,29.7604491 L13.2941144,23.5392685 C13.8007233,23.9538769 14.4292807,24.193535 15.085712,24.2212668 C16.042485,24.2579003 16.9431617,23.8614374 17.5525558,23.1428056 L25.6380893,27.7418436 C25.6380893,27.7969649 25.6286818,27.8431847 25.6286818,27.8986484 C25.5537706,29.530035 26.8481667,30.9217635 28.5080599,30.9953728 C30.177709,31.0693244 31.5944021,29.7970825 31.6693133,28.165696 C31.6787207,27.862015 31.6504984,27.5665508 31.5752387,27.2717714 L40.0830624,19.8615445 L40.4395004,19.5667651 L41.2272877,21.3361263 C41.2931399,21.4836872 41.4429623,21.5665404 41.6021922,21.5480525 C41.7715264,21.5391509 41.9025339,21.4189795 41.9307563,21.262517 L42.9910113,16.4419665 C43.0188852,16.3224799 42.9812554,16.1934069 42.8875293,16.1105537 L42.8875293,16.1105537 Z" id="Fill-18" fill="#7E7044"></path>
        </g>
    </g>
</svg>