<?xml version="1.0" encoding="UTF-8"?>
<svg width="83px" height="79px" viewBox="0 0 83 79" version="1.1" xmlns="http://www.w3.org/2000/svg" xmlns:xlink="http://www.w3.org/1999/xlink">
    <!-- Generator: Sketch 59.1 (86144) - https://sketch.com -->
    <title>Icon / Visual / Resources</title>
    <desc>Created with Sketch.</desc>
    <defs>
        <polygon id="path-1" points="0.2548 0.335533333 6.6563 0.335533333 6.6563 6.61752 0.2548 6.61752"></polygon>
        <polygon id="path-3" points="0.4127 0.25405 4.723 0.25405 4.723 4.56455 0.4127 4.56455"></polygon>
        <polygon id="path-5" points="0 36 50 36 50 1 0 1"></polygon>
    </defs>
    <g id="Icon-/-Visual-/-Resources" stroke="none" stroke-width="1" fill="none" fill-rule="evenodd">
        <circle id="Oval" stroke="#B7AC82" stroke-width="3" cx="42.5" cy="39.5" r="36"></circle>
        <g id="Group-35" transform="translate(19.000000, 23.000000)">
            <path d="M30,14 C29.4484173,14 29.000164,14.4483268 29.000164,15 C29.000164,15.5516732 29.4484173,16 30,16 C30.5520748,16 30.999836,15.5516732 30.999836,15 C30.999836,14.4483268 30.5520748,14 30,14 M30,18 C28.3457438,18 27,16.6545276 27,15 C27,13.3454724 28.3457438,12 30,12 C31.6542562,12 33,13.3454724 33,15 C33,16.6545276 31.6542562,18 30,18" id="Fill-1" fill="#7E7144"></path>
            <g id="Group-5" transform="translate(40.000000, 0.000000)">
                <mask id="mask-2" fill="white">
                    <use xlink:href="#path-1"></use>
                </mask>
                <g id="Clip-4"></g>
                <polygon id="Fill-3" fill="#7E7144" mask="url(#mask-2)" points="6.1688 6.61752 4.1428 6.46912 4.4708 2.53372 0.2548 2.22665333 0.4133 0.335253333 6.6563 0.791186667"></polygon>
            </g>
            <polygon id="Fill-6" fill="#7E7144" points="31.2634323 15 30 13.3574868 44.7365677 1 46 2.64251315"></polygon>
            <polygon id="Fill-8" fill="#7E7144" points="27.0443437 15 15 8.8356408 15.9556563 7 28 13.1648673"></polygon>
            <path d="M14,5.99983597 C13.4479252,5.99983597 13.000164,6.44812597 13.000164,6.99975396 C13.000164,7.55187403 13.4479252,7.99967194 14,7.99967194 C14.5515827,7.99967194 14.999836,7.55187403 14.999836,6.99975396 C14.999836,6.44812597 14.5515827,5.99983597 14,5.99983597 M14,10 C12.3457438,10 11,8.65463791 11,6.99975396 C11,5.34585418 12.3457438,4 14,4 C15.6542562,4 17,5.34585418 17,6.99975396 C17,8.65463791 15.6542562,10 14,10" id="Fill-10" fill="#7E7144"></path>
            <polygon id="Fill-12" fill="#7E7144" points="6.03360019 14 5 12.4358994 11.9663998 8 13 9.5641006"></polygon>
            <path d="M2.99975396,13.999836 C2.44812597,13.999836 1.99983597,14.4486181 1.99983597,14.999754 C1.99983597,15.551874 2.44812597,15.9996719 2.99975396,15.9996719 C3.55187403,15.9996719 3.99967194,15.551874 3.99967194,14.999754 C3.99967194,14.4486181 3.55187403,13.999836 2.99975396,13.999836 M2.99975396,18 C1.34585418,18 0,16.6546379 0,14.999754 C0,13.3458542 1.34585418,12 2.99975396,12 C4.65414582,12 6,13.3458542 6,14.999754 C6,16.6546379 4.65414582,18 2.99975396,18" id="Fill-14" fill="#7E7144"></path>
            <path d="M28.9968008,7.00012313 C26.9483204,7.00012313 24.8993479,7.77949416 23.3391165,9.34020559 C20.2196382,12.4611361 20.2196382,17.5386178 23.3391165,20.6595483 C26.4610557,23.7824482 31.5374677,23.7804788 34.6554694,20.6595483 C36.1674665,19.1480707 36.9992617,17.138347 36.9992617,14.9996308 C36.9992617,12.8614069 36.1674665,10.8516832 34.6554694,9.34020559 C33.0952381,7.77949416 31.0462655,7.00012313 28.9968008,7.00012313 M28.9977852,25 C26.435462,25 23.8746155,24.0256631 21.9250646,22.0745277 C18.0249785,18.1737338 18.0249785,11.8260201 21.9250646,7.92522621 C25.8251507,4.02393998 32.171404,4.02590934 36.0695213,7.92522621 C37.9595177,9.81481941 39,12.3272202 39,14.9996308 C39,17.6725337 37.9595177,20.1844421 36.0695213,22.0745277 C34.1199705,24.0246784 31.5581395,25 28.9977852,25" id="Fill-16" fill="#7E7144"></path>
            <polygon id="Fill-18" fill="#7E7144" points="37.5774038 25 35 22.4224202 36.4221012 21 39 23.5775798"></polygon>
            <g id="Group-22" transform="translate(45.000000, 30.000000)">
                <mask id="mask-4" fill="white">
                    <use xlink:href="#path-3"></use>
                </mask>
                <g id="Clip-21"></g>
                <polygon id="Fill-20" fill="#7E7144" mask="url(#mask-4)" points="3.2862 4.56455 0.4127 1.69055 1.8492 0.25405 4.7232 3.12755"></polygon>
            </g>
            <path d="M39.0676673,25.5298906 L44.6138387,31.0760621 L46.0760621,29.6128212 L40.5298906,24.0676673 L39.0676673,24.0676673 L39.0676673,25.5298906 Z M44.6138387,34 L37,26.3861613 L37,22 L41.3856525,22 L49,29.6128212 L44.6138387,34 Z" id="Fill-23" fill="#7E7144"></path>
            <mask id="mask-6" fill="white">
                <use xlink:href="#path-5"></use>
            </mask>
            <g id="Clip-26"></g>
            <polygon id="Fill-25" fill="#7E7144" mask="url(#mask-6)" points="4 32 6 32 6 22 4 22"></polygon>
            <polygon id="Fill-27" fill="#7E7144" mask="url(#mask-6)" points="8 32 10 32 10 18 8 18"></polygon>
            <polygon id="Fill-28" fill="#7E7144" mask="url(#mask-6)" points="13 31 15 31 15 14 13 14"></polygon>
            <polygon id="Fill-29" fill="#7E7144" mask="url(#mask-6)" points="16 32 18 32 18 19 16 19"></polygon>
            <polygon id="Fill-30" fill="#7E7144" mask="url(#mask-6)" points="20 31 22 31 22 24 20 24"></polygon>
            <polygon id="Fill-31" fill="#7E7144" mask="url(#mask-6)" points="24 31 26 31 26 26 24 26"></polygon>
            <polygon id="Fill-32" fill="#7E7144" mask="url(#mask-6)" points="28 32 30 32 30 27 28 27"></polygon>
            <polygon id="Fill-33" fill="#7E7144" mask="url(#mask-6)" points="33 31 35 31 35 26 33 26"></polygon>
            <polygon id="Fill-34" fill="#7E7144" mask="url(#mask-6)" points="2 35 40 35 40 33 2 33"></polygon>
        </g>
    </g>
</svg>