<?xml version="1.0" encoding="UTF-8"?>
<svg width="83px" height="79px" viewBox="0 0 83 79" version="1.1" xmlns="http://www.w3.org/2000/svg" xmlns:xlink="http://www.w3.org/1999/xlink">
    <!-- Generator: Sketch 59.1 (86144) - https://sketch.com -->
    <title>Icon / Visual / Bankers</title>
    <desc>Created with Sketch.</desc>
    <defs>
        <polygon id="path-1" points="0 41.475 46.8642809 41.475 46.8642809 0.021 0 0.021"></polygon>
    </defs>
    <g id="Icon-/-Visual-/-Bankers" stroke="none" stroke-width="1" fill="none" fill-rule="evenodd">
        <circle id="Oval" stroke="#B7AC82" stroke-width="3" cx="42.5" cy="39.5" r="36"></circle>
        <g id="Group-24" transform="translate(19.000000, 15.000000)">
            <path d="M7.27351068,34.8333927 L10.7264893,34.8333927 L10.7264893,24.1660924 L7.27351068,24.1660924 L7.27351068,34.8333927 Z M6,36 L12,36 L12,23 L6,23 L6,36 Z" id="Fill-1" fill="#7E7144"></path>
            <polygon id="Fill-2" fill="#7E7144" points="13 24 5 24 5 20 6.1693975 20 6.1693975 22.7879112 11.8300864 22.7879112 11.8300864 20 13 20"></polygon>
            <path d="M4.163792,37.6838133 L13.836208,37.6838133 L13.836208,35.3150255 L4.163792,35.3150255 L4.163792,37.6838133 Z M3,39 L15,39 L15,34 L3,34 L3,39 Z" id="Fill-3" fill="#7E7144"></path>
            <path d="M21.2737493,34.8333927 L24.7262507,34.8333927 L24.7262507,24.1660924 L21.2737493,24.1660924 L21.2737493,34.8333927 Z M20,36 L26,36 L26,23 L20,23 L20,36 Z" id="Fill-4" fill="#7E7144"></path>
            <polygon id="Fill-5" fill="#7E7144" points="27 24 19 24 19 20 20.1693221 20 20.1693221 22.7879112 25.8306779 22.7879112 25.8306779 20 27 20"></polygon>
            <path d="M18.163792,37.6838133 L27.836208,37.6838133 L27.836208,35.3150255 L18.163792,35.3150255 L18.163792,37.6838133 Z M17,39 L29,39 L29,34 L17,34 L17,39 Z" id="Fill-6" fill="#7E7144"></path>
            <path d="M1,43 L46,43 L46,38 L1,38 L1,43 Z M2.20491106,41.6842411 L44.7956204,41.6842411 L44.7956204,39.3163396 L2.20491106,39.3163396 L2.20491106,41.6842411 Z" id="Fill-7" fill="#7E7144"></path>
            <path d="M36.2738686,34.8333927 L39.7261314,34.8333927 L39.7261314,24.1660924 L36.2738686,24.1660924 L36.2738686,34.8333927 Z M35,36 L41,36 L41,23 L35,23 L35,36 Z" id="Fill-8" fill="#7E7144"></path>
            <polygon id="Fill-9" fill="#7E7144" points="42 24 34 24 34 20 35.1693975 20 35.1693975 22.7879112 40.8306025 22.7879112 40.8306025 20 42 20"></polygon>
            <path d="M33.1632784,37.6838133 L42.8356944,37.6838133 L42.8356944,35.3150255 L33.1632784,35.3150255 L33.1632784,37.6838133 Z M32,39 L44,39 L44,34 L32,34 L32,39 Z" id="Fill-10" fill="#7E7144"></path>
            <polygon id="Fill-11" fill="#7E7144" points="44 20 3 20 3 16 4.18525228 16 4.18525228 18.7879112 42.8147477 18.7879112 42.8147477 16 44 16"></polygon>
            <path d="M23.5002657,0 L1,11.6288246 L1,16 L46,16 L46,11.6288246 L23.5002657,0 Z M2.20405247,12.3687678 L23.5002657,1.36271527 L44.7959475,12.3687678 L44.7959475,14.7881625 L2.20405247,14.7881625 L2.20405247,12.3687678 Z" id="Fill-12" fill="#7E7144"></path>
            <polygon id="Fill-13" fill="#7E7144" points="23 6 24 6 24 4 23 4"></polygon>
            <polygon id="Fill-14" fill="#7E7144" points="23 14 24 14 24 12 23 12"></polygon>
            <g id="Group-23" transform="translate(0.000000, 1.000000)">
                <path d="M23.3882034,11.9039025 C22.164091,11.9039025 21.1675854,10.9788525 21.1675854,9.8417025 L22.3647652,9.8417025 C22.3647652,10.3231275 22.8236753,10.7137275 23.3882034,10.7137275 C23.9527315,10.7137275 24.4111135,10.3231275 24.4111135,9.8417025 C24.4111135,9.3608025 23.9527315,8.9702025 23.3882034,8.9702025 L23.3882034,7.7805525 C24.6123157,7.7805525 25.6082933,8.7050775 25.6082933,9.8417025 C25.6082933,10.9788525 24.6123157,11.9039025 23.3882034,11.9039025" id="Fill-15" fill="#7E7144"></path>
                <path d="M23.3882034,8.970255 C22.164091,8.970255 21.1675854,8.045205 21.1675854,6.908055 C21.1675854,5.77143 22.164091,4.846905 23.3882034,4.846905 C24.6123157,4.846905 25.6082933,5.77143 25.6082933,6.908055 L24.4111135,6.908055 C24.4111135,6.427155 23.9527315,6.036555 23.3882034,6.036555 C22.8236753,6.036555 22.3647652,6.427155 22.3647652,6.908055 C22.3647652,7.38948 22.8236753,7.78008 23.3882034,7.78008 L23.3882034,8.970255 Z" id="Fill-17" fill="#7E7144"></path>
                <mask id="mask-2" fill="white">
                    <use xlink:href="#path-1"></use>
                </mask>
                <g id="Clip-20"></g>
                <polygon id="Fill-19" fill="#7E7144" mask="url(#mask-2)" points="28.4138764 8.97015 30.0900337 8.97015 30.0900337 7.779975 28.4138764 7.779975"></polygon>
                <polygon id="Fill-21" fill="#7E7144" mask="url(#mask-2)" points="16.7404494 8.97015 18.4155506 8.97015 18.4155506 7.779975 16.7404494 7.779975"></polygon>
                <polygon id="Fill-22" fill="#7E7144" mask="url(#mask-2)" points="0 41.475 46.8642809 41.475 46.8642809 40.284825 0 40.284825"></polygon>
            </g>
        </g>
    </g>
</svg>