<?xml version="1.0" encoding="UTF-8"?>
<svg width="83px" height="79px" viewBox="0 0 83 79" version="1.1" xmlns="http://www.w3.org/2000/svg" xmlns:xlink="http://www.w3.org/1999/xlink">
    <!-- Generator: Sketch 63.1 (92452) - https://sketch.com -->
    <title>fdic-business-icon-white</title>
    <desc>Created with Sketch.</desc>
    <defs>
        <polygon id="path-1" points="0 0 75 0 75 63 0 63"></polygon>
    </defs>
    <g id="Symbols" stroke="none" stroke-width="1" fill="none" fill-rule="evenodd">
        <g id="Icon-/-Visual-/-Open-For-Business-Copy">
            <g id="fdic-business-icon-white" transform="translate(4.000000, 8.000000)">
                <mask id="mask-2" fill="white">
                    <use xlink:href="#path-1"></use>
                </mask>
                <g id="Clip-2"></g>
                <path d="M1.9231743,61.099925 L73.0768257,61.099925 L73.0768257,26.900075 L1.9231743,26.900075 L1.9231743,61.099925 Z M74.0376533,63 L0.96158715,63 C0.430663439,63 0,62.5745093 0,62.0499625 L0,25.9500375 C0,25.4254907 0.430663439,25 0.96158715,25 L74.0376533,25 C74.568577,25 75,25.4254907 75,25.9500375 L75,62.0499625 C75,62.5745093 74.568577,63 74.0376533,63 L74.0376533,63 Z" id="Fill-1" fill="#FFFFFF" mask="url(#mask-2)"></path>
                <path d="M6.89256503,56.0427055 L68.1066872,56.0427055 L68.1066872,29.9565217 L6.89256503,29.9565217 L6.89256503,56.0427055 Z M69.0533436,58 L5.94665639,58 C5.42322869,58 5,57.5610962 5,57.0209664 L5,28.9790336 C5,28.4389038 5.42322869,28 5.94665639,28 L69.0533436,28 C69.5752758,28 70,28.4389038 70,28.9790336 L70,57.0209664 C70,57.5610962 69.5752758,58 69.0533436,58 L69.0533436,58 Z" id="Fill-3" fill="#FFFFFF" mask="url(#mask-2)"></path>
                <path d="M60.6424996,26 L37,2.32058426 L13.3575004,26 L12,24.6404236 L36.3212498,0.281979186 C36.6958896,-0.0939930619 37.3041104,-0.0939930619 37.6787502,0.281979186 L62,24.6404236 L60.6424996,26 Z" id="Fill-4" fill="#FFFFFF" mask="url(#mask-2)"></path>
                <path d="M18.0110132,40.5877875 C13.6391757,40.5877875 13.6244915,47.427125 18.0110132,47.427125 C22.397535,47.427125 22.397535,40.5877875 18.0110132,40.5877875 M18.0110132,49 C11.3223221,49 11.3370064,39 18.0110132,39 C24.6556514,39 24.6703357,49 18.0110132,49" id="Fill-5" fill="#FFFFFF" mask="url(#mask-2)"></path>
                <path d="M33.4994582,41.9202119 C33.4994582,40.6672018 32.0003612,40.6672018 32.0003612,40.6672018 L30.4998194,40.6672018 L30.4998194,43.1748274 L32.0003612,43.1748274 C32.0003612,43.1748274 33.4994582,43.1748274 33.4994582,41.9202119 M35,41.9202119 C35,44.8412265 32.0003612,44.8412265 32.0003612,44.8412265 L30.4998194,44.8412265 L30.4998194,49 L29,49 L29,39 L32.0003612,39 C32.0003612,39 35,39 35,41.9202119" id="Fill-6" fill="#FFFFFF" mask="url(#mask-2)"></path>
                <polygon id="Fill-7" fill="#FFFFFF" mask="url(#mask-2)" points="40.5030771 40.6720335 40.5030771 43.171631 44.2426692 43.171631 44.2426692 44.829174 40.5030771 44.829174 40.5030771 47.3295766 45 47.3295766 45 49 39 49 39 39 45 39 45 40.6720335"></polygon>
                <polygon id="Fill-8" fill="#FFFFFF" mask="url(#mask-2)" points="59 49 57.3814403 49 52.6046399 41.8860087 52.6046399 49 51 49 51 39 52.619333 39 57.4077332 46.1147963 57.4077332 39 59 39"></polygon>
            </g>
        </g>
    </g>
</svg>