<?xml version="1.0" encoding="UTF-8"?>
<svg width="83px" height="79px" viewBox="0 0 83 79" version="1.1" xmlns="http://www.w3.org/2000/svg" xmlns:xlink="http://www.w3.org/1999/xlink">
    <!-- Generator: Sketch 64 (93537) - https://sketch.com -->
    <title>Group 19</title>
    <desc>Created with Sketch.</desc>
    <defs>
        <polygon id="path-1" points="0 0.00545699869 66.8356745 0.00545699869 66.8356745 33 0 33"></polygon>
        <polygon id="path-3" points="0.53712 0.760952381 15.81632 0.760952381 15.81632 16.2202667 0.53712 16.2202667"></polygon>
    </defs>
    <g id="Symbols" stroke="none" stroke-width="1" fill="none" fill-rule="evenodd">
        <g id="Icon-/-Visual-/-Community-Reinvestment-Act">
            <g id="Group-19" transform="translate(8.000000, 3.000000)">
                <path d="M4.43654891,60.5536685 L4.44633152,60.5634511 C5.02839674,61.1455163 5.97160326,61.1455163 6.55366848,60.5634511 L6.56345109,60.5536685 C7.1455163,59.9716033 7.1455163,59.0283967 6.56345109,58.4463315 L6.55366848,58.4365489 C5.97160326,57.8544837 5.02839674,57.8544837 4.44633152,58.4365489 L4.43654891,58.4463315 C3.8544837,59.0283967 3.8544837,59.9716033 4.43654891,60.5536685" id="Fill-1" fill="#103354"></path>
                <g id="Group-5" transform="translate(0.000000, 41.000000)">
                    <mask id="mask-2" fill="white">
                        <use xlink:href="#path-1"></use>
                    </mask>
                    <g id="Clip-4"></g>
                    <path d="M63.7829753,4.51675714 L58.38514,9.39682857 C57.4416224,10.2571857 56.5903282,11.0743286 55.7540106,11.8765429 C54.51254,13.0724 53.3057518,14.2344714 51.8538224,15.4578286 L46.4835753,19.9804 C45.5298106,20.7826143 44.3230224,21.2234 43.0752459,21.2234 L21.8654106,21.2234 C21.1205282,21.9651143 19.9129518,21.9651143 19.1688576,21.2234 L11.7759988,13.8549714 C11.0319047,13.1124714 11.0319047,11.9095429 11.7759988,11.1670429 L15.8086106,7.14811429 C20.1060694,2.86361429 27.4342929,3.25961429 30.6219165,6.43861429 C30.8465635,6.6704 32.0494106,7.82304286 33.5754341,7.86547143 L42.3461282,8.11297143 C43.0279518,8.13182857 43.6569635,8.42018571 44.1149282,8.92461429 C44.6201871,9.48168571 44.8440459,10.2194714 44.7265988,10.9737571 C44.5374224,12.2018286 43.3897518,13.0598286 42.1427635,13.0598286 L33.4753282,13.0598286 C32.6752694,13.0598286 32.02734,13.7049 32.02734,14.5024 C32.02734,15.2999 32.6752694,15.9457571 33.4753282,15.9457571 L42.2759753,15.9457571 C45.0844576,15.9457571 47.4404929,13.7567571 47.63834,10.9651143 C47.6533165,10.7576857 47.6296694,10.5557571 47.6209988,10.3514714 C49.4158106,9.53747143 53.2710694,7.7099 56.5233282,5.61754286 L57.9137753,4.70375714 C60.9673988,2.67032857 61.6113871,2.33247143 63.7246459,3.75461429 C63.8964812,3.87011429 63.9319518,4.0359 63.9382576,4.1239 C63.9445635,4.2119 63.93274,4.38004286 63.7829753,4.51675714 M65.1434694,1.22932857 C61.4781753,-1.13331429 59.3002812,0.311614286 56.3065635,2.30497143 L54.95474,3.19282857 C52.0359047,5.07147143 48.5266812,6.75761429 46.7082224,7.59047143 C46.5671282,7.38461429 46.43234,7.1764 46.2612929,6.98861429 C45.2689047,5.8949 43.9068341,5.26947143 42.4281047,5.22704286 L33.6558341,4.97875714 C33.4351282,4.97325714 32.9684929,4.70375714 32.6823635,4.41068571 C28.4684576,0.208685714 19.28394,-0.400242857 13.7615635,5.10682857 L10.1545988,8.70225714 C9.17482235,9.6789 7.58652824,9.6789 6.60675176,8.70225714 L5.54184588,7.64075714 L0.423834118,12.7431857 C-0.141330588,13.3065429 -0.141330588,14.2195429 0.423834118,14.7829 C0.988998824,15.3462571 1.90571647,15.3462571 2.47088118,14.7829 L3.76752824,13.4904 C4.74730471,12.5145429 6.33638706,12.5137571 7.31537529,13.4904 L19.5740106,25.7082571 C20.5537871,26.6841143 20.5537871,28.2681143 19.5740106,29.2447571 L18.2773635,30.5364714 C17.7121988,31.1006143 17.7121988,32.0136143 18.2773635,32.5777571 C18.8425282,33.1411143 19.7584576,33.1411143 20.3244106,32.5777571 L25.4416341,27.4761143 L22.5637871,24.6074714 L23.0643165,24.1101143 L43.0752459,24.1101143 C45.0064224,24.1101143 46.8753282,23.4273286 48.3509047,22.1851143 L53.7227282,17.6617571 C55.2274694,16.3951857 56.4776106,15.1914714 57.7663753,13.9547571 C58.5821988,13.1698286 59.4129988,12.3684 60.3336576,11.5324 L65.7314929,6.65154286 C66.6064341,5.8564 67.00134,4.68175714 66.7711753,3.4969 C66.5883047,2.55404286 65.9521988,1.75104286 65.1434694,1.22932857" id="Fill-3" fill="#103354" mask="url(#mask-2)"></path>
                </g>
                <path d="M54.103047,40.8334005 C54.7099902,41.1706522 55.3602302,40.9742574 55.5987565,40.4390012 C56.5174369,38.3824906 57,36.1255607 57,33.8477034 C57,22.3642444 44.9886663,13.6922891 33.13635,20.2763428 C30.5747509,21.6993999 28.5673514,24.0078432 27.4495054,26.7605894 C25.7436095,30.956515 25.5562522,35.1540505 26.819733,38.9475279 C27.0141753,39.530273 27.6352883,39.8369386 28.1887008,39.5970794 L28.9963838,39.2469495 C29.4907552,39.0344568 29.7119627,38.4670047 29.5419242,37.9462366 C29.2301868,36.9980685 29.0294469,36.0185094 28.942066,35.0164132 C28.3241018,27.9252747 33.6677205,21.4740289 40.6148971,20.9878714 C47.9659152,20.4727376 54.1077703,26.4402405 54.1077703,33.8477034 C54.1077703,35.6836725 53.7243964,37.5011288 52.9907116,39.1600206 C52.776589,39.6429586 52.9867755,40.2128253 53.4425733,40.4663677 L54.103047,40.8334005 Z" id="Fill-6" fill="#103354"></path>
                <path d="M41.4992172,28.5323856 C42.638201,28.5323856 43.6354967,29.1178021 43.9885426,29.9076751 C44.1490179,30.2662727 44.4550954,30.5322259 44.8425847,30.5322259 L45.8203103,30.5322259 C46.5076146,30.5322259 47.0015656,29.8429838 46.7870766,29.1753055 C46.3181753,27.7233448 45.1181327,26.5517131 43.5713066,25.9846658 C43.1830344,25.8425046 42.9364503,25.4519607 42.9364503,25.0302691 C42.9364503,24.4616245 42.4847709,24 41.9266297,24 L41.0718047,24 C40.5136635,24 40.0612013,24.4616245 40.0612013,25.0302691 C40.0612013,25.4519607 39.8146171,25.8425046 39.426345,25.9846658 C37.421577,26.7186327 36,28.4724862 36,30.5322259 C36,32.9888987 37.6994734,35.4671352 41.4992172,35.4671352 C43.1431113,35.4671352 44.1247509,36.2146793 44.1247509,37.4669755 C44.1247509,38.5507547 42.9223598,39.4676144 41.4992172,39.4676144 C40.3610162,39.4676144 39.3637205,38.8813992 39.0114574,38.0915262 C38.8509821,37.7329287 38.5441218,37.4669755 38.1574153,37.4669755 L37.1796897,37.4669755 C36.4916026,37.4669755 35.9976516,38.1562176 36.2129234,38.8230972 C36.680259,40.2758566 37.8803017,41.4490855 39.4271278,42.0161329 C39.8146171,42.1582941 40.0612013,42.548838 40.0612013,42.9689322 C40.0612013,43.5383755 40.5136635,44 41.0718047,44 L41.9266297,44 C42.4847709,44 42.9364503,43.5383755 42.9364503,42.9689322 C42.9364503,42.548838 43.1830344,42.1582941 43.5713066,42.0161329 C45.5776402,41.2813673 47,39.5275138 47,37.4669755 C47,34.5622554 44.7384714,32.5328648 41.4992172,32.5328648 C40.5191432,32.5328648 38.8744663,32.2740995 38.8744663,30.5322259 C38.8744663,29.447648 40.0768574,28.5323856 41.4992172,28.5323856" id="Fill-8" fill="#103354"></path>
                <path d="M22.5717478,28.561108 L22.5717478,28.5508923 C22.5717478,27.8350077 22.0378559,27.2613571 21.334125,27.1293388 C17.8406319,26.4731768 15.2977652,23.092567 16.0077864,19.286827 C16.4339564,17.0047976 18.0930314,15.0748167 20.2797081,14.2897797 C23.4492491,13.1526941 26.7312298,14.5215974 28.3030265,17.131315 C28.6686521,17.7395419 29.3904677,18.0279389 30.054884,17.7811905 L30.0690373,17.7756897 C30.9276676,17.4566457 31.2555511,16.4382193 30.7837762,15.6531823 C27.994014,11.0136843 21.4363429,9.10963562 16.0895607,13.3931558 C15.3433701,13.991167 14.7182683,14.7439853 14.2755862,15.5911023 C10.8111859,22.2250186 14.8700226,28.8840812 20.8489831,29.9755891 C21.741424,30.1382544 22.5717478,29.4679476 22.5717478,28.561108" id="Fill-10" fill="#103354"></path>
                <g id="Group-14" transform="translate(37.000000, 0.000000)">
                    <mask id="mask-4" fill="white">
                        <use xlink:href="#path-3"></use>
                    </mask>
                    <g id="Clip-13"></g>
                    <path d="M8.17632,3.73498095 C10.76752,3.73498095 12.87712,5.86807619 12.87712,8.49012381 C12.87712,11.1121714 10.76752,13.2468857 8.17632,13.2468857 C5.58512,13.2468857 3.47552,11.1121714 3.47552,8.49012381 C3.47552,5.86807619 5.58512,3.73498095 8.17632,3.73498095 M8.17632,16.2202667 C12.38912,16.2202667 15.81632,12.7530762 15.81632,8.49012381 C15.81632,4.22798095 12.38912,0.760790476 8.17632,0.760790476 C3.96352,0.760790476 0.53712,4.22798095 0.53712,8.49012381 C0.53712,12.7530762 3.96352,16.2202667 8.17632,16.2202667" id="Fill-12" fill="#103354" mask="url(#mask-4)"></path>
                </g>
                <path d="M45.5073489,7 L45.4926511,7 C44.6687534,7 44,7.66793685 44,8.49265106 L44,8.50734894 C44,9.3312466 44.6687534,10 45.4926511,10 L45.5073489,10 C46.3320631,10 47,9.3312466 47,8.50734894 L47,8.49265106 C47,7.66793685 46.3320631,7 45.5073489,7" id="Fill-15" fill="#103354"></path>
                <path d="M22.4926511,22 L22.5073489,22 C23.3312466,22 24,21.3320631 24,20.5073489 L24,20.4934676 C24,19.6687534 23.3312466,19 22.5073489,19 L22.4926511,19 C21.6687534,19 21,19.6687534 21,20.4934676 L21,20.5073489 C21,21.3320631 21.6687534,22 22.4926511,22" id="Fill-17" fill="#103354"></path>
            </g>
        </g>
    </g>
</svg>