<?xml version="1.0" encoding="UTF-8"?>
<svg width="83px" height="79px" viewBox="0 0 83 79" version="1.1" xmlns="http://www.w3.org/2000/svg" xmlns:xlink="http://www.w3.org/1999/xlink">
    <!-- Generator: Sketch 63.1 (92452) - https://sketch.com -->
    <title>fdic-governance-icon-white</title>
    <desc>Created with Sketch.</desc>
    <defs>
        <polygon id="path-1" points="0 70 64 70 64 0 0 0"></polygon>
    </defs>
    <g id="Symbols" stroke="none" stroke-width="1" fill="none" fill-rule="evenodd">
        <g id="Icon-/-Visual-/-Governance-Copy">
            <g id="fdic-governance-icon-white" transform="translate(9.000000, 4.000000)">
                <path d="M5.15739058,41.727238 L58.8411357,41.727238 L58.8411357,38.0619889 L32,30.3359493 L5.15739058,38.0619889 L5.15739058,41.727238 Z M60.4209363,45 L3.57832687,45 C2.70737339,45 2,44.2677138 2,43.363619 L2,36.818095 C2,36.083518 2.4723191,35.4375179 3.15611338,35.2412744 L31.5770497,27.060133 C31.8541042,26.9799557 32.1481063,26.9799557 32.4222135,27.060133 L60.8431498,35.2412744 C61.5276809,35.4375179 62,36.083518 62,36.818095 L62,43.363619 C62,44.2677138 61.2933635,45 60.4209363,45 L60.4209363,45 Z" id="Fill-1" fill="#FFFFFF"></path>
                <mask id="mask-2" fill="white">
                    <use xlink:href="#path-1"></use>
                </mask>
                <g id="Clip-4"></g>
                <path d="M28.2496208,15.0004667 L34.7496208,15.0004667 L34.7496208,12.0002333 L28.2496208,12.0002333 L28.2496208,15.0004667 Z M36.3755688,18 L26.6244312,18 C25.7280364,18 25,17.3293925 25,16.4998833 L25,10.5001167 C25,9.67060745 25.7280364,9 26.6244312,9 L36.3755688,9 C37.272722,9 38,9.67060745 38,10.5001167 L38,16.4998833 C38,17.3293925 37.272722,18 36.3755688,18 L36.3755688,18 Z" id="Fill-3" fill="#FFFFFF" mask="url(#mask-2)"></path>
                <path d="M32.5716381,11 C31.7040469,11 31,10.2974667 31,9.42846667 L31,1.57153333 C31,0.703266667 31.7040469,0 32.5716381,0 L40.4290953,0 C41.2974198,0 42,0.703266667 42,1.57153333 C42,2.44053333 41.2974198,3.14306667 40.4290953,3.14306667 L34.1432762,3.14306667 L34.1432762,9.42846667 C34.1432762,10.2974667 33.440696,11 32.5716381,11" id="Fill-5" fill="#FFFFFF" mask="url(#mask-2)"></path>
                <path d="M3.200224,66.9997667 L60.8005227,66.9997667 L60.8005227,63.9995333 L3.200224,63.9995333 L3.200224,66.9997667 Z M62.399888,70 L1.600112,70 C0.717549058,70 0,69.3293925 0,68.4998833 L0,62.5001167 C0,61.6706075 0.717549058,61 1.600112,61 L62.399888,61 C63.2846909,61 64,61.6706075 64,62.5001167 L64,68.4998833 C64,69.3293925 63.2846909,70 62.399888,70 L62.399888,70 Z" id="Fill-6" fill="#FFFFFF" mask="url(#mask-2)"></path>
                <path d="M7.5003499,64 C6.67249825,64 6,63.2974667 6,62.4284667 L6,43.5715333 C6,42.7025333 6.67249825,42 7.5003499,42 C8.32890133,42 9,42.7025333 9,43.5715333 L9,62.4284667 C9,63.2974667 8.32890133,64 7.5003499,64" id="Fill-7" fill="#FFFFFF" mask="url(#mask-2)"></path>
                <path d="M17.4996501,64 C16.6724983,64 16,63.2974667 16,62.4284667 L16,43.5715333 C16,42.7025333 16.6724983,42 17.4996501,42 C18.3289013,42 19,42.7025333 19,43.5715333 L19,62.4284667 C19,63.2974667 18.3289013,64 17.4996501,64" id="Fill-8" fill="#FFFFFF" mask="url(#mask-2)"></path>
                <path d="M27.5,64 C26.6719552,64 26,63.2974667 26,62.4284667 L26,43.5715333 C26,42.7025333 26.6719552,42 27.5,42 C28.3294447,42 29,42.7025333 29,43.5715333 L29,62.4284667 C29,63.2974667 28.3294447,64 27.5,64" id="Fill-9" fill="#FFFFFF" mask="url(#mask-2)"></path>
                <path d="M36.5003499,64 C35.6724983,64 35,63.2974667 35,62.4284667 L35,43.5715333 C35,42.7025333 35.6724983,42 36.5003499,42 C37.3289013,42 38,42.7025333 38,43.5715333 L38,62.4284667 C38,63.2974667 37.3289013,64 36.5003499,64" id="Fill-10" fill="#FFFFFF" mask="url(#mask-2)"></path>
                <path d="M45.4996501,64 C44.6717985,64 44,63.2974667 44,62.4284667 L44,43.5715333 C44,42.7025333 44.6717985,42 45.4996501,42 C46.3289013,42 47,42.7025333 47,43.5715333 L47,62.4284667 C47,63.2974667 46.3289013,64 45.4996501,64" id="Fill-11" fill="#FFFFFF" mask="url(#mask-2)"></path>
                <path d="M56.5,64 C55.6719552,64 55,63.2974667 55,62.4284667 L55,43.5715333 C55,42.7025333 55.6719552,42 56.5,42 C57.3294447,42 58,42.7025333 58,43.5715333 L58,62.4284667 C58,63.2974667 57.3294447,64 56.5,64" id="Fill-12" fill="#FFFFFF" mask="url(#mask-2)"></path>
                <path d="M52.7997511,34.3512611 C52.7997511,24.8554183 43.4700474,17.131188 32.0003733,17.131188 C20.5306992,17.131188 11.1995022,24.8554183 11.1995022,34.3512611 C11.1995022,35.2162463 8,35.2162463 8,34.3512611 C8,23.1298313 18.767053,14 32.0003733,14 C45.2344404,14 56,23.1298313 56,34.3512611 C56,35.2162463 52.7997511,35.2162463 52.7997511,34.3512611" id="Fill-13" fill="#FFFFFF" mask="url(#mask-2)"></path>
            </g>
        </g>
    </g>
</svg>