<?xml version="1.0" encoding="UTF-8"?>
<svg width="83px" height="79px" viewBox="0 0 83 79" version="1.1" xmlns="http://www.w3.org/2000/svg" xmlns:xlink="http://www.w3.org/1999/xlink">
    <title>icon-security-exchange-act-filing</title>
    <g id="Symbols" stroke="none" stroke-width="1" fill="none" fill-rule="evenodd">
        <g id="icon-security-exchange-act-filing" fill-rule="nonzero">
            <g id="Icon_SecurityExchangeActFiling" transform="translate(4.000000, 9.000000)">
                <path d="M33.0530973,-1.99115044 L-1.99115044,-1.99115044 L-1.99115044,63.7168142 L76.9911504,63.7168142 L76.9911504,7.96460177 L38.3628319,7.96460177 L33.0530973,-1.99115044 Z M1.99115044,1.99115044 L30.6630531,1.99115044 L35.9734513,11.9469027 L73.0088496,11.9469027 L73.0088496,59.7345133 L1.99115044,59.7345133 L1.99115044,1.99115044 Z" id="Path" fill="#ffffff"></path>
                <polygon id="Path" fill="#ffffff" points="28.539823 5.64159292 28.539823 9.62389381 5.64159292 9.62389381 5.64159292 5.64159292"></polygon>
                <g id="Group" transform="translate(23.893805, 19.247788)">
                    <rect id="Rectangle" fill="#ffffff" x="0.584070796" y="10.8982301" width="26.6415929" height="21.6238938"></rect>
                    <path d="M5.03097345,11.2433628 C5.03097345,11.2433628 3.69026549,0.265486726 14.130531,1.08420217e-19 C14.130531,1.08420217e-19 24.0331858,-0.265486726 22.699115,11.2433628 L19.4867257,11.2433628 C19.4867257,11.2433628 21.0929204,3.47787611 14.130531,3.21238938 C14.130531,3.21238938 7.16814159,2.94690265 8.24336283,11.2433628 L5.03097345,11.2433628 Z" id="Path" fill="#ffffff"></path>
                    <path d="M12.7433628,22.3141593 L12.7433628,26.409292 C12.7433628,26.409292 13.7920354,27.3318584 15.0663717,26.409292 L15.0663717,22.3141593 L12.7433628,22.3141593 Z" id="Path" fill="#003256"></path>
                    <circle id="Oval" fill="#003256" cx="13.8982301" cy="19.8915929" r="3.28539823"></circle>
                </g>
            </g>
        </g>
    </g>
</svg>