<?xml version="1.0" encoding="UTF-8"?>
<svg width="83px" height="79px" viewBox="0 0 83 79" version="1.1" xmlns="http://www.w3.org/2000/svg" xmlns:xlink="http://www.w3.org/1999/xlink">
    <!-- Generator: Sketch 64 (93537) - https://sketch.com -->
    <title>Group 3</title>
    <desc>Created with Sketch.</desc>
    <defs>
        <polygon id="path-1" points="0 0 65 0 65 65 0 65"></polygon>
    </defs>
    <g id="Symbols" stroke="none" stroke-width="1" fill="none" fill-rule="evenodd">
        <g id="Icon-/-Visual-/-Minority-Depository-Inst.">
            <g id="Group-3" transform="translate(9.000000, 6.000000)">
                <mask id="mask-2" fill="white">
                    <use xlink:href="#path-1"></use>
                </mask>
                <g id="Clip-2"></g>
                <path d="M7.08220294,10.183259 L57.9184941,10.183259 C59.1751826,10.183259 60.2046495,11.213434 60.2046495,12.469439 L60.2046495,14.4747255 C60.2046495,15.7307305 59.1737886,16.7609055 57.9184941,16.7609055 L7.08220294,16.7609055 C5.82621144,16.7609055 4.79604748,15.7321245 4.79604748,14.4747255 L4.79604748,12.469439 C4.79604748,11.21204 5.82412044,10.183259 7.08220294,10.183259 L7.08220294,10.183259 Z M29.9221506,26.9441645 L29.9221506,65 L23.9405085,65 L23.9405085,26.9441645 L18.8670556,26.9441645 L18.8670556,65 L12.8861104,65 L12.8861104,26.9441645 L11.3255305,26.9441645 C10.068145,26.9441645 9.03937506,25.9153835 9.03937506,24.6572875 L9.03937506,22.6526979 C9.03937506,21.394602 10.068145,20.365821 11.3255305,20.365821 L12.8861104,20.365821 L52.1131926,20.365821 L53.6744695,20.365821 C54.931855,20.365821 55.9606249,21.395299 55.9606249,22.6526979 L55.9606249,24.6572875 C55.9606249,25.9146865 54.931158,26.9441645 53.6744695,26.9441645 L52.1131926,26.9441645 L52.1131926,65 L46.1322474,65 L46.1322474,26.9441645 L41.0587945,26.9441645 L41.0587945,65 L35.0785464,65 L35.0785464,26.9441645 L29.9221506,26.9441645 Z M2.28685246,0 L62.7131475,0 C63.970533,0 65,1.029478 65,2.28617998 L65,4.2914665 C65,5.54886549 63.970533,6.57764648 62.7131475,6.57764648 L2.28685246,6.57764648 C1.02876996,6.57764648 0,5.54956249 0,4.2914665 L0,2.28617998 C0,1.02878099 1.02876996,0 2.28685246,0 L2.28685246,0 Z" id="Fill-1" fill="#103354" mask="url(#mask-2)"></path>
            </g>
        </g>
    </g>
</svg>