<?xml version="1.0" encoding="UTF-8"?>
<svg width="83px" height="79px" viewBox="0 0 83 79" version="1.1" xmlns="http://www.w3.org/2000/svg" xmlns:xlink="http://www.w3.org/1999/xlink">
    <!-- Generator: Sketch 63.1 (92452) - https://sketch.com -->
    <title>fdic-strategicplans-icon-white</title>
    <desc>Created with Sketch.</desc>
    <defs>
        <polygon id="path-1" points="8.04347826e-05 0.0612108696 73.9396739 0.0612108696 73.9396739 74 8.04347826e-05 74"></polygon>
    </defs>
    <g id="Symbols" stroke="none" stroke-width="1" fill="none" fill-rule="evenodd">
        <g id="Icon-/-Visual-/-Strategic-Plans-Copy">
            <g id="fdic-strategicplans-icon-white" transform="translate(5.000000, 3.000000)">
                <path d="M42.6410843,33.467015 L46,28 L40.5338014,31.3589157 L36,34.1446767 C37.0507838,33.8589157 38.2215872,34.1291639 39.0470281,34.9537884 C39.8716525,35.7792293 40.1410843,36.9492162 39.8561398,38 L42.6410843,33.467015 Z" id="Fill-1" fill="#FFFFFF"></path>
                <path d="M33.467015,42.6410843 L28,46 L31.3589157,40.532985 L34.1438602,36 C33.8580993,37.0507838 34.1291639,38.2207707 34.9529719,39.0462116 C35.7784128,39.8716525 36.9492162,40.1410843 38,39.8553233 L33.467015,42.6410843 Z" id="Fill-3" fill="#FFFFFF"></path>
                <g id="Group-7">
                    <mask id="mask-2" fill="white">
                        <use xlink:href="#path-1"></use>
                    </mask>
                    <g id="Clip-6"></g>
                    <path d="M40.4434935,6.74936304 C54.4994717,8.34438478 65.6549717,19.4998848 67.2499935,33.555863 L69.0718413,34.5017761 L73.9397543,37.0298413 L69.0718413,39.5587109 L67.2507978,40.5046239 C65.6557761,54.5597978 54.5002761,65.7152978 40.4442978,67.3103196 L39.4975804,69.1321674 L36.9703196,74.0000804 L34.44145,69.1321674 L33.495537,67.3111239 C19.440363,65.7161022 8.28566739,54.5606022 6.6898413,40.5046239 L4.86799348,39.5587109 L8.04347826e-05,37.0298413 L4.86799348,34.5017761 L6.6898413,33.555863 C8.28566739,19.4998848 19.440363,8.34438478 33.495537,6.74936304 L34.44145,4.92831957 L36.9703196,0.0612108696 L39.4975804,4.92831957 L40.4434935,6.74936304 Z M36.9703196,12.4891891 C50.5235804,12.4891891 61.5101674,23.4765804 61.5101674,37.0298413 C61.5101674,50.5847109 50.5235804,61.5712978 36.9703196,61.5712978 C23.4162543,61.5712978 12.428863,50.5847109 12.428863,37.0298413 C12.428863,23.4765804 23.4162543,12.4891891 36.9703196,12.4891891 L36.9703196,12.4891891 Z" id="Fill-5" fill="#FFFFFF" mask="url(#mask-2)"></path>
                </g>
                <path d="M36.500399,16 C41.5506899,16 46.1748701,17.8272936 49.7473385,20.8562921 L50.6594072,20.5674361 L53.2535762,19.7471488 L52.433273,22.3412674 L52.1444114,23.2533183 C55.1726708,26.8257172 57,31.4490094 57,36.5 C57,41.5509906 55.1726708,46.1742828 52.1444114,49.7466817 L52.433273,50.6595306 L53.2535762,53.2536491 L50.6594072,52.4325639 L49.7473385,52.1437079 C46.1740721,55.1727064 41.5506899,57 36.500399,57 C31.4493101,57 26.8259279,55.1727064 23.2526615,52.1437079 L22.3405928,52.4325639 L19.7464238,53.2536491 L20.566727,50.6595306 L20.8563866,49.7466817 C17.8273292,46.1742828 16,41.5509906 16,36.5 C16,31.4490094 17.8273292,26.8257172 20.8563866,23.2533183 L20.566727,22.3412674 L19.7464238,19.7471488 L22.3405928,20.5674361 L23.2526615,20.8562921 C26.8259279,17.8280915 31.4493101,16 36.500399,16 M36.500399,18.8295123 C46.2594539,18.8295123 54.1712306,26.741135 54.1712306,36.5 C54.1712306,46.258865 46.2594539,54.1704877 36.500399,54.1704877 C26.7413441,54.1704877 18.8287694,46.258865 18.8287694,36.5 C18.8287694,26.741135 26.7413441,18.8295123 36.500399,18.8295123" id="Fill-8" fill="#FFFFFF"></path>
                <path d="M39.8288809,34.1711478 C41.390373,35.7334624 41.390373,38.2667337 39.8288809,39.828264 C38.2666046,41.3905787 35.7333954,41.3905787 34.1711191,39.828264 C32.609627,38.2667337 32.609627,35.7334624 34.1711191,34.1711478 C35.7333954,32.6096174 38.2666046,32.6096174 39.8288809,34.1711478" id="Fill-10" fill="#FFFFFF"></path>
            </g>
        </g>
    </g>
</svg>