<?xml version="1.0" encoding="UTF-8"?>
<svg width="83px" height="79px" viewBox="0 0 83 79" version="1.1" xmlns="http://www.w3.org/2000/svg" xmlns:xlink="http://www.w3.org/1999/xlink">
    <!-- Generator: Sketch 64 (93537) - https://sketch.com -->
    <title>Group 6</title>
    <desc>Created with Sketch.</desc>
    <g id="Symbols" stroke="none" stroke-width="1" fill="none" fill-rule="evenodd">
        <g id="Icon-/-Visual-/-Archived-Research" fill="#103354">
            <g id="Group-6" transform="translate(8.000000, 9.000000)">
                <path d="M0,25 L5.25281642,62 L62.7464273,62 L68,25 L0,25 Z M2.82378585,27.4237439 L65.1769704,27.4237439 L60.6130851,59.5755092 L7.38691489,59.5755092 L2.82378585,27.4237439 Z" id="Fill-1"></path>
                <path d="M5,0 L5,27 L63,27 L63,4.90867836 L24.6752387,4.90867836 L23.00845,0 L5,0 Z M7.4618705,2.45433918 L21.2430347,2.45433918 L22.9105821,7.36301754 L60.5373708,7.36301754 L60.5373708,24.5449045 L7.4618705,24.5449045 L7.4618705,2.45433918 Z" id="Fill-2"></path>
                <path d="M12.4541115,24.6666667 L55.5458885,24.6666667 L55.5458885,22.3333333 L12.4541115,22.3333333 L12.4541115,24.6666667 Z M10,27 L58,27 L58,20 L10,20 L10,27 Z" id="Fill-3"></path>
                <path d="M15.4785408,19.6669063 L52.5214592,19.6669063 L52.5214592,17.3338127 L15.4785408,17.3338127 L15.4785408,19.6669063 Z M13,22 L55,22 L55,15 L13,15 L13,22 Z" id="Fill-4"></path>
                <path d="M18.4395352,14.6661873 L48.5589613,14.6661873 L48.5589613,12.3330937 L18.4395352,12.3330937 L18.4395352,14.6661873 Z M16,17 L51,17 L51,10 L16,10 L16,17 Z" id="Fill-5"></path>
            </g>
        </g>
    </g>
</svg>